<mxfile>
    <diagram id="ky6TA1Pmz6TNt99ig_7A" name="Page-1">
        <mxGraphModel dx="2356" dy="4201" grid="1" gridSize="10" guides="1" tooltips="1" connect="1" arrows="1" fold="1" page="1" pageScale="1" pageWidth="850" pageHeight="1100" math="0" shadow="0">
            <root>
                <mxCell id="0"/>
                <mxCell id="1" parent="0"/>
                <mxCell id="urUbboM_1R0ok-0YM-QM-43" value="" style="rounded=0;whiteSpace=wrap;html=1;" parent="1" vertex="1">
                    <mxGeometry x="1790" y="-2780" width="620" height="420" as="geometry"/>
                </mxCell>
                <mxCell id="urUbboM_1R0ok-0YM-QM-33" value="" style="rounded=0;whiteSpace=wrap;html=1;" parent="1" vertex="1">
                    <mxGeometry x="1130" y="-2780" width="620" height="420" as="geometry"/>
                </mxCell>
                <mxCell id="urUbboM_1R0ok-0YM-QM-3" value="" style="rounded=0;whiteSpace=wrap;html=1;" parent="1" vertex="1">
                    <mxGeometry x="475" y="-2780" width="620" height="420" as="geometry"/>
                </mxCell>
                <mxCell id="BqpVgTPgoQ1Rq6-j6qBt-35" value="" style="rounded=0;whiteSpace=wrap;html=1;" parent="1" vertex="1">
                    <mxGeometry x="-290" y="-2155" width="230" height="420" as="geometry"/>
                </mxCell>
                <mxCell id="BqpVgTPgoQ1Rq6-j6qBt-40" value="Scanner&amp;nbsp; ou upload" style="whiteSpace=wrap;html=1;aspect=fixed;" parent="1" vertex="1">
                    <mxGeometry x="-270" y="-2105" width="190" height="190" as="geometry"/>
                </mxCell>
                <mxCell id="BqpVgTPgoQ1Rq6-j6qBt-41" value="Dirignez votre téléphone vers un QR Code " style="text;html=1;strokeColor=none;fillColor=none;align=center;verticalAlign=middle;whiteSpace=wrap;rounded=0;" parent="1" vertex="1">
                    <mxGeometry x="-250" y="-1845" width="150" height="30" as="geometry"/>
                </mxCell>
                <mxCell id="BqpVgTPgoQ1Rq6-j6qBt-42" value="Enter un code" style="rounded=1;whiteSpace=wrap;html=1;fillColor=#dae8fc;strokeColor=#6c8ebf;" parent="1" vertex="1">
                    <mxGeometry x="-231.25" y="-1795" width="112.5" height="20" as="geometry"/>
                </mxCell>
                <mxCell id="BqpVgTPgoQ1Rq6-j6qBt-43" value="" style="rounded=0;whiteSpace=wrap;html=1;" parent="1" vertex="1">
                    <mxGeometry x="-290" y="-1650" width="230" height="420" as="geometry"/>
                </mxCell>
                <mxCell id="BqpVgTPgoQ1Rq6-j6qBt-44" value="" style="rounded=0;whiteSpace=wrap;html=1;align=left;" parent="1" vertex="1">
                    <mxGeometry x="-290" y="-1650" width="230" height="30" as="geometry"/>
                </mxCell>
                <mxCell id="BqpVgTPgoQ1Rq6-j6qBt-46" value="Scanner" style="text;html=1;strokeColor=none;fillColor=none;align=center;verticalAlign=middle;whiteSpace=wrap;rounded=0;" parent="1" vertex="1">
                    <mxGeometry x="-267" y="-1645" width="50" height="20" as="geometry"/>
                </mxCell>
                <mxCell id="BqpVgTPgoQ1Rq6-j6qBt-47" value="Scanner&amp;nbsp; or upload" style="whiteSpace=wrap;html=1;aspect=fixed;" parent="1" vertex="1">
                    <mxGeometry x="-270" y="-1600" width="190" height="190" as="geometry"/>
                </mxCell>
                <mxCell id="BqpVgTPgoQ1Rq6-j6qBt-48" value="Dirigez votre téléphone vers un QR Code " style="text;html=1;strokeColor=none;fillColor=none;align=center;verticalAlign=middle;whiteSpace=wrap;rounded=0;" parent="1" vertex="1">
                    <mxGeometry x="-250" y="-1340" width="150" height="30" as="geometry"/>
                </mxCell>
                <mxCell id="BqpVgTPgoQ1Rq6-j6qBt-49" value="Enter un code" style="rounded=1;whiteSpace=wrap;html=1;fillColor=#dae8fc;strokeColor=#6c8ebf;" parent="1" vertex="1">
                    <mxGeometry x="-231.25" y="-1290" width="112.5" height="20" as="geometry"/>
                </mxCell>
                <mxCell id="BqpVgTPgoQ1Rq6-j6qBt-38" value="" style="shape=image;html=1;verticalAlign=top;verticalLabelPosition=bottom;labelBackgroundColor=#ffffff;imageAspect=0;aspect=fixed;image=https://cdn1.iconfinder.com/data/icons/feather-2/24/chevron-left-128.png" parent="1" vertex="1">
                    <mxGeometry x="-287" y="-1645" width="20" height="20" as="geometry"/>
                </mxCell>
                <mxCell id="BqpVgTPgoQ1Rq6-j6qBt-50" value="&lt;div&gt;Enter un code&lt;/div&gt;&lt;div&gt;&lt;br&gt;&lt;/div&gt;&lt;div&gt;&lt;br&gt;&lt;/div&gt;" style="rounded=0;whiteSpace=wrap;html=1;" parent="1" vertex="1">
                    <mxGeometry x="-276" y="-1560" width="202" height="210" as="geometry"/>
                </mxCell>
                <mxCell id="BqpVgTPgoQ1Rq6-j6qBt-51" value="" style="rounded=0;whiteSpace=wrap;html=1;" parent="1" vertex="1">
                    <mxGeometry x="-240.5" y="-1450" width="131" height="20" as="geometry"/>
                </mxCell>
                <mxCell id="BqpVgTPgoQ1Rq6-j6qBt-52" value="Confirmer" style="rounded=1;whiteSpace=wrap;html=1;fillColor=#dae8fc;strokeColor=#6c8ebf;" parent="1" vertex="1">
                    <mxGeometry x="-160" y="-1380" width="70" height="20" as="geometry"/>
                </mxCell>
                <mxCell id="BqpVgTPgoQ1Rq6-j6qBt-54" value="Annuler" style="rounded=1;whiteSpace=wrap;html=1;fillColor=#f8cecc;strokeColor=#b85450;" parent="1" vertex="1">
                    <mxGeometry x="-240.5" y="-1380" width="70" height="20" as="geometry"/>
                </mxCell>
                <mxCell id="BqpVgTPgoQ1Rq6-j6qBt-55" value="" style="rounded=0;whiteSpace=wrap;html=1;align=left;" parent="1" vertex="1">
                    <mxGeometry x="-290" y="-2155" width="230" height="30" as="geometry"/>
                </mxCell>
                <mxCell id="BqpVgTPgoQ1Rq6-j6qBt-57" value="Scanner" style="text;html=1;strokeColor=none;fillColor=none;align=center;verticalAlign=middle;whiteSpace=wrap;rounded=0;" parent="1" vertex="1">
                    <mxGeometry x="-267" y="-2150" width="50" height="20" as="geometry"/>
                </mxCell>
                <mxCell id="BqpVgTPgoQ1Rq6-j6qBt-58" value="" style="shape=image;html=1;verticalAlign=top;verticalLabelPosition=bottom;labelBackgroundColor=#ffffff;imageAspect=0;aspect=fixed;image=https://cdn1.iconfinder.com/data/icons/feather-2/24/chevron-left-128.png" parent="1" vertex="1">
                    <mxGeometry x="-287" y="-2150" width="20" height="20" as="geometry"/>
                </mxCell>
                <mxCell id="BqpVgTPgoQ1Rq6-j6qBt-59" value="" style="rounded=0;whiteSpace=wrap;html=1;" parent="1" vertex="1">
                    <mxGeometry x="-650" y="-2155" width="230" height="420" as="geometry"/>
                </mxCell>
                <mxCell id="BqpVgTPgoQ1Rq6-j6qBt-63" value="" style="rounded=0;whiteSpace=wrap;html=1;align=left;" parent="1" vertex="1">
                    <mxGeometry x="-650" y="-2155" width="230" height="30" as="geometry"/>
                </mxCell>
                <mxCell id="BqpVgTPgoQ1Rq6-j6qBt-65" value="Pannier" style="text;html=1;strokeColor=none;fillColor=none;align=center;verticalAlign=middle;whiteSpace=wrap;rounded=0;" parent="1" vertex="1">
                    <mxGeometry x="-615" y="-2150" width="50" height="20" as="geometry"/>
                </mxCell>
                <mxCell id="BqpVgTPgoQ1Rq6-j6qBt-67" value="Le pannier est vide" style="text;html=1;strokeColor=none;fillColor=none;align=center;verticalAlign=middle;whiteSpace=wrap;rounded=0;" parent="1" vertex="1">
                    <mxGeometry x="-593.75" y="-2115" width="115" height="20" as="geometry"/>
                </mxCell>
                <mxCell id="BqpVgTPgoQ1Rq6-j6qBt-72" value="" style="rounded=0;whiteSpace=wrap;html=1;" parent="1" vertex="1">
                    <mxGeometry x="50" y="-2155" width="230" height="420" as="geometry"/>
                </mxCell>
                <mxCell id="BqpVgTPgoQ1Rq6-j6qBt-77" value="" style="ellipse;whiteSpace=wrap;html=1;aspect=fixed;" parent="1" vertex="1">
                    <mxGeometry x="230" y="-1825" width="40" height="40" as="geometry"/>
                </mxCell>
                <mxCell id="BqpVgTPgoQ1Rq6-j6qBt-78" value="" style="shape=image;html=1;verticalAlign=top;verticalLabelPosition=bottom;labelBackgroundColor=#ffffff;imageAspect=0;aspect=fixed;image=https://cdn1.iconfinder.com/data/icons/heroicons-solid/20/qrcode-128.png" parent="1" vertex="1">
                    <mxGeometry x="236" y="-1819" width="28" height="28" as="geometry"/>
                </mxCell>
                <mxCell id="BqpVgTPgoQ1Rq6-j6qBt-79" value="" style="rounded=0;whiteSpace=wrap;html=1;" parent="1" vertex="1">
                    <mxGeometry x="50" y="-2125" width="230" height="50" as="geometry"/>
                </mxCell>
                <mxCell id="BqpVgTPgoQ1Rq6-j6qBt-81" value="Produit 1" style="text;html=1;strokeColor=none;fillColor=none;align=center;verticalAlign=middle;whiteSpace=wrap;rounded=0;" parent="1" vertex="1">
                    <mxGeometry x="64" y="-2110" width="66" height="20" as="geometry"/>
                </mxCell>
                <mxCell id="BqpVgTPgoQ1Rq6-j6qBt-88" value="" style="rounded=0;whiteSpace=wrap;html=1;" parent="1" vertex="1">
                    <mxGeometry x="50" y="-2075" width="230" height="50" as="geometry"/>
                </mxCell>
                <mxCell id="BqpVgTPgoQ1Rq6-j6qBt-89" value="Produit 1" style="text;html=1;strokeColor=none;fillColor=none;align=center;verticalAlign=middle;whiteSpace=wrap;rounded=0;" parent="1" vertex="1">
                    <mxGeometry x="64" y="-2060" width="66" height="20" as="geometry"/>
                </mxCell>
                <mxCell id="BqpVgTPgoQ1Rq6-j6qBt-90" value="" style="rounded=0;whiteSpace=wrap;html=1;" parent="1" vertex="1">
                    <mxGeometry x="50" y="-2025" width="180" height="50" as="geometry"/>
                </mxCell>
                <mxCell id="BqpVgTPgoQ1Rq6-j6qBt-91" value="Produit 1" style="text;html=1;strokeColor=none;fillColor=none;align=center;verticalAlign=middle;whiteSpace=wrap;rounded=0;" parent="1" vertex="1">
                    <mxGeometry x="64" y="-2010" width="66" height="20" as="geometry"/>
                </mxCell>
                <mxCell id="BqpVgTPgoQ1Rq6-j6qBt-92" value="" style="rounded=0;whiteSpace=wrap;html=1;" parent="1" vertex="1">
                    <mxGeometry x="50" y="-1975" width="230" height="50" as="geometry"/>
                </mxCell>
                <mxCell id="BqpVgTPgoQ1Rq6-j6qBt-93" value="Produit 1" style="text;html=1;strokeColor=none;fillColor=none;align=center;verticalAlign=middle;whiteSpace=wrap;rounded=0;" parent="1" vertex="1">
                    <mxGeometry x="64" y="-1960" width="66" height="20" as="geometry"/>
                </mxCell>
                <mxCell id="BqpVgTPgoQ1Rq6-j6qBt-94" value="" style="rounded=0;whiteSpace=wrap;html=1;" parent="1" vertex="1">
                    <mxGeometry x="50" y="-1925" width="230" height="50" as="geometry"/>
                </mxCell>
                <mxCell id="BqpVgTPgoQ1Rq6-j6qBt-95" value="Produit 1" style="text;html=1;strokeColor=none;fillColor=none;align=center;verticalAlign=middle;whiteSpace=wrap;rounded=0;" parent="1" vertex="1">
                    <mxGeometry x="64" y="-1910" width="66" height="20" as="geometry"/>
                </mxCell>
                <mxCell id="BqpVgTPgoQ1Rq6-j6qBt-97" value="Valider / Confirmer" style="rounded=1;whiteSpace=wrap;html=1;fillColor=#ffe6cc;strokeColor=#d79b00;" parent="1" vertex="1">
                    <mxGeometry x="60" y="-1775" width="210" height="30" as="geometry"/>
                </mxCell>
                <mxCell id="BqpVgTPgoQ1Rq6-j6qBt-98" value="" style="rounded=0;whiteSpace=wrap;html=1;" parent="1" vertex="1">
                    <mxGeometry x="340" y="-2155" width="230" height="420" as="geometry"/>
                </mxCell>
                <mxCell id="BqpVgTPgoQ1Rq6-j6qBt-102" value="" style="ellipse;whiteSpace=wrap;html=1;aspect=fixed;" parent="1" vertex="1">
                    <mxGeometry x="520" y="-1825" width="40" height="40" as="geometry"/>
                </mxCell>
                <mxCell id="BqpVgTPgoQ1Rq6-j6qBt-103" value="" style="shape=image;html=1;verticalAlign=top;verticalLabelPosition=bottom;labelBackgroundColor=#ffffff;imageAspect=0;aspect=fixed;image=https://cdn1.iconfinder.com/data/icons/heroicons-solid/20/qrcode-128.png" parent="1" vertex="1">
                    <mxGeometry x="526" y="-1819" width="28" height="28" as="geometry"/>
                </mxCell>
                <mxCell id="BqpVgTPgoQ1Rq6-j6qBt-104" value="" style="rounded=0;whiteSpace=wrap;html=1;" parent="1" vertex="1">
                    <mxGeometry x="340" y="-2125" width="230" height="50" as="geometry"/>
                </mxCell>
                <mxCell id="BqpVgTPgoQ1Rq6-j6qBt-105" value="Produit 1" style="text;html=1;strokeColor=none;fillColor=none;align=center;verticalAlign=middle;whiteSpace=wrap;rounded=0;" parent="1" vertex="1">
                    <mxGeometry x="354" y="-2110" width="66" height="20" as="geometry"/>
                </mxCell>
                <mxCell id="BqpVgTPgoQ1Rq6-j6qBt-106" value="" style="rounded=0;whiteSpace=wrap;html=1;" parent="1" vertex="1">
                    <mxGeometry x="340" y="-2075" width="230" height="50" as="geometry"/>
                </mxCell>
                <mxCell id="BqpVgTPgoQ1Rq6-j6qBt-107" value="Produit 1" style="text;html=1;strokeColor=none;fillColor=none;align=center;verticalAlign=middle;whiteSpace=wrap;rounded=0;" parent="1" vertex="1">
                    <mxGeometry x="354" y="-2060" width="66" height="20" as="geometry"/>
                </mxCell>
                <mxCell id="BqpVgTPgoQ1Rq6-j6qBt-108" value="" style="rounded=0;whiteSpace=wrap;html=1;" parent="1" vertex="1">
                    <mxGeometry x="340" y="-2025" width="230" height="50" as="geometry"/>
                </mxCell>
                <mxCell id="BqpVgTPgoQ1Rq6-j6qBt-109" value="Produit 1" style="text;html=1;strokeColor=none;fillColor=none;align=center;verticalAlign=middle;whiteSpace=wrap;rounded=0;" parent="1" vertex="1">
                    <mxGeometry x="354" y="-2010" width="66" height="20" as="geometry"/>
                </mxCell>
                <mxCell id="BqpVgTPgoQ1Rq6-j6qBt-110" value="" style="rounded=0;whiteSpace=wrap;html=1;" parent="1" vertex="1">
                    <mxGeometry x="340" y="-1975" width="230" height="50" as="geometry"/>
                </mxCell>
                <mxCell id="BqpVgTPgoQ1Rq6-j6qBt-111" value="Produit 1" style="text;html=1;strokeColor=none;fillColor=none;align=center;verticalAlign=middle;whiteSpace=wrap;rounded=0;" parent="1" vertex="1">
                    <mxGeometry x="354" y="-1960" width="66" height="20" as="geometry"/>
                </mxCell>
                <mxCell id="BqpVgTPgoQ1Rq6-j6qBt-112" value="" style="rounded=0;whiteSpace=wrap;html=1;" parent="1" vertex="1">
                    <mxGeometry x="340" y="-1925" width="230" height="50" as="geometry"/>
                </mxCell>
                <mxCell id="BqpVgTPgoQ1Rq6-j6qBt-113" value="Produit 1" style="text;html=1;strokeColor=none;fillColor=none;align=center;verticalAlign=middle;whiteSpace=wrap;rounded=0;" parent="1" vertex="1">
                    <mxGeometry x="354" y="-1910" width="66" height="20" as="geometry"/>
                </mxCell>
                <mxCell id="BqpVgTPgoQ1Rq6-j6qBt-114" value="Valider / Confirmer" style="rounded=1;whiteSpace=wrap;html=1;fillColor=#ffe6cc;strokeColor=#d79b00;" parent="1" vertex="1">
                    <mxGeometry x="350" y="-1775" width="210" height="30" as="geometry"/>
                </mxCell>
                <mxCell id="BqpVgTPgoQ1Rq6-j6qBt-115" value="" style="rounded=0;whiteSpace=wrap;html=1;" parent="1" vertex="1">
                    <mxGeometry x="370" y="-2085" width="120" height="60" as="geometry"/>
                </mxCell>
                <mxCell id="BqpVgTPgoQ1Rq6-j6qBt-116" value="" style="rounded=0;whiteSpace=wrap;html=1;" parent="1" vertex="1">
                    <mxGeometry x="354" y="-2065" width="202" height="210" as="geometry"/>
                </mxCell>
                <mxCell id="BqpVgTPgoQ1Rq6-j6qBt-117" value="Valider ?" style="text;html=1;strokeColor=none;fillColor=none;align=center;verticalAlign=middle;whiteSpace=wrap;rounded=0;" parent="1" vertex="1">
                    <mxGeometry x="401" y="-2005" width="110" height="20" as="geometry"/>
                </mxCell>
                <mxCell id="BqpVgTPgoQ1Rq6-j6qBt-119" value="Valider" style="rounded=1;whiteSpace=wrap;html=1;fillColor=#ffe6cc;strokeColor=#d79b00;" parent="1" vertex="1">
                    <mxGeometry x="362" y="-1890" width="188" height="30" as="geometry"/>
                </mxCell>
                <mxCell id="BqpVgTPgoQ1Rq6-j6qBt-120" value="" style="rounded=0;whiteSpace=wrap;html=1;fillColor=#f8cecc;strokeColor=#b85450;" parent="1" vertex="1">
                    <mxGeometry x="230.5" y="-2025" width="49.5" height="50" as="geometry"/>
                </mxCell>
                <mxCell id="BqpVgTPgoQ1Rq6-j6qBt-121" value="" style="shape=image;html=1;verticalAlign=top;verticalLabelPosition=bottom;labelBackgroundColor=#ffffff;imageAspect=0;aspect=fixed;image=https://cdn2.iconfinder.com/data/icons/app-user-interface-6/48/Trash-128.png" parent="1" vertex="1">
                    <mxGeometry x="240" y="-2015" width="30" height="30" as="geometry"/>
                </mxCell>
                <mxCell id="BqpVgTPgoQ1Rq6-j6qBt-122" value="" style="ellipse;whiteSpace=wrap;html=1;aspect=fixed;" parent="1" vertex="1">
                    <mxGeometry x="-470" y="-1825" width="40" height="40" as="geometry"/>
                </mxCell>
                <mxCell id="BqpVgTPgoQ1Rq6-j6qBt-123" value="" style="shape=image;html=1;verticalAlign=top;verticalLabelPosition=bottom;labelBackgroundColor=#ffffff;imageAspect=0;aspect=fixed;image=https://cdn1.iconfinder.com/data/icons/heroicons-solid/20/qrcode-128.png" parent="1" vertex="1">
                    <mxGeometry x="-464" y="-1819" width="28" height="28" as="geometry"/>
                </mxCell>
                <mxCell id="BqpVgTPgoQ1Rq6-j6qBt-124" value="Valider / Confirmer" style="rounded=1;whiteSpace=wrap;html=1;strokeColor=#666666;fontColor=#333333;fillColor=#CCCCCC;" parent="1" vertex="1">
                    <mxGeometry x="-640" y="-1775" width="210" height="30" as="geometry"/>
                </mxCell>
                <mxCell id="BqpVgTPgoQ1Rq6-j6qBt-125" value="" style="shape=flexArrow;endArrow=classic;html=1;fillColor=#f8cecc;strokeColor=#b85450;" parent="1" edge="1">
                    <mxGeometry width="50" height="50" relative="1" as="geometry">
                        <mxPoint x="-436" y="-1805.34" as="sourcePoint"/>
                        <mxPoint x="-316" y="-1805.34" as="targetPoint"/>
                    </mxGeometry>
                </mxCell>
                <mxCell id="BqpVgTPgoQ1Rq6-j6qBt-126" value="" style="shape=flexArrow;endArrow=classic;html=1;fillColor=#f8cecc;strokeColor=#b85450;" parent="1" edge="1">
                    <mxGeometry width="50" height="50" relative="1" as="geometry">
                        <mxPoint x="-175.5" y="-1780" as="sourcePoint"/>
                        <mxPoint x="-175" y="-1670" as="targetPoint"/>
                    </mxGeometry>
                </mxCell>
                <mxCell id="BqpVgTPgoQ1Rq6-j6qBt-128" value="" style="shape=flexArrow;endArrow=classic;html=1;fillColor=#f8cecc;strokeColor=#b85450;exitX=0.25;exitY=0;exitDx=0;exitDy=0;" parent="1" source="BqpVgTPgoQ1Rq6-j6qBt-54" edge="1">
                    <mxGeometry width="50" height="50" relative="1" as="geometry">
                        <mxPoint x="-310" y="-1380" as="sourcePoint"/>
                        <mxPoint x="-270" y="-1730" as="targetPoint"/>
                        <Array as="points">
                            <mxPoint x="-410" y="-1480"/>
                        </Array>
                    </mxGeometry>
                </mxCell>
                <mxCell id="BqpVgTPgoQ1Rq6-j6qBt-129" value="" style="shape=flexArrow;endArrow=classic;html=1;fillColor=#f8cecc;strokeColor=#b85450;exitX=0.75;exitY=0;exitDx=0;exitDy=0;" parent="1" source="BqpVgTPgoQ1Rq6-j6qBt-52" edge="1">
                    <mxGeometry width="50" height="50" relative="1" as="geometry">
                        <mxPoint x="170" y="-1520" as="sourcePoint"/>
                        <mxPoint x="120" y="-1720" as="targetPoint"/>
                        <Array as="points">
                            <mxPoint x="80" y="-1440"/>
                        </Array>
                    </mxGeometry>
                </mxCell>
                <mxCell id="BqpVgTPgoQ1Rq6-j6qBt-130" value="" style="shape=flexArrow;endArrow=classic;html=1;fillColor=#f8cecc;strokeColor=#b85450;" parent="1" edge="1">
                    <mxGeometry width="50" height="50" relative="1" as="geometry">
                        <mxPoint x="-90" y="-2025" as="sourcePoint"/>
                        <mxPoint x="40" y="-2025" as="targetPoint"/>
                    </mxGeometry>
                </mxCell>
                <mxCell id="BqpVgTPgoQ1Rq6-j6qBt-131" value="" style="shape=flexArrow;endArrow=classic;html=1;fillColor=#f8cecc;strokeColor=#b85450;" parent="1" edge="1">
                    <mxGeometry width="50" height="50" relative="1" as="geometry">
                        <mxPoint x="-287" y="-2141" as="sourcePoint"/>
                        <mxPoint x="-410" y="-2070" as="targetPoint"/>
                    </mxGeometry>
                </mxCell>
                <mxCell id="BqpVgTPgoQ1Rq6-j6qBt-132" value="" style="rounded=0;whiteSpace=wrap;html=1;" parent="1" vertex="1">
                    <mxGeometry x="630" y="-2155" width="230" height="420" as="geometry"/>
                </mxCell>
                <mxCell id="BqpVgTPgoQ1Rq6-j6qBt-136" value="" style="ellipse;whiteSpace=wrap;html=1;aspect=fixed;" parent="1" vertex="1">
                    <mxGeometry x="810" y="-1825" width="40" height="40" as="geometry"/>
                </mxCell>
                <mxCell id="BqpVgTPgoQ1Rq6-j6qBt-137" value="" style="shape=image;html=1;verticalAlign=top;verticalLabelPosition=bottom;labelBackgroundColor=#ffffff;imageAspect=0;aspect=fixed;image=https://cdn1.iconfinder.com/data/icons/heroicons-solid/20/qrcode-128.png" parent="1" vertex="1">
                    <mxGeometry x="816" y="-1819" width="28" height="28" as="geometry"/>
                </mxCell>
                <mxCell id="BqpVgTPgoQ1Rq6-j6qBt-138" value="" style="rounded=0;whiteSpace=wrap;html=1;" parent="1" vertex="1">
                    <mxGeometry x="630" y="-2125" width="230" height="50" as="geometry"/>
                </mxCell>
                <mxCell id="BqpVgTPgoQ1Rq6-j6qBt-139" value="Produit 1" style="text;html=1;strokeColor=none;fillColor=none;align=center;verticalAlign=middle;whiteSpace=wrap;rounded=0;" parent="1" vertex="1">
                    <mxGeometry x="644" y="-2110" width="66" height="20" as="geometry"/>
                </mxCell>
                <mxCell id="BqpVgTPgoQ1Rq6-j6qBt-140" value="" style="rounded=0;whiteSpace=wrap;html=1;" parent="1" vertex="1">
                    <mxGeometry x="630" y="-2075" width="230" height="50" as="geometry"/>
                </mxCell>
                <mxCell id="BqpVgTPgoQ1Rq6-j6qBt-141" value="Produit 1" style="text;html=1;strokeColor=none;fillColor=none;align=center;verticalAlign=middle;whiteSpace=wrap;rounded=0;" parent="1" vertex="1">
                    <mxGeometry x="644" y="-2060" width="66" height="20" as="geometry"/>
                </mxCell>
                <mxCell id="BqpVgTPgoQ1Rq6-j6qBt-142" value="" style="rounded=0;whiteSpace=wrap;html=1;" parent="1" vertex="1">
                    <mxGeometry x="630" y="-2025" width="230" height="50" as="geometry"/>
                </mxCell>
                <mxCell id="BqpVgTPgoQ1Rq6-j6qBt-143" value="Produit 1" style="text;html=1;strokeColor=none;fillColor=none;align=center;verticalAlign=middle;whiteSpace=wrap;rounded=0;" parent="1" vertex="1">
                    <mxGeometry x="644" y="-2010" width="66" height="20" as="geometry"/>
                </mxCell>
                <mxCell id="BqpVgTPgoQ1Rq6-j6qBt-144" value="" style="rounded=0;whiteSpace=wrap;html=1;" parent="1" vertex="1">
                    <mxGeometry x="630" y="-1975" width="230" height="50" as="geometry"/>
                </mxCell>
                <mxCell id="BqpVgTPgoQ1Rq6-j6qBt-145" value="Produit 1" style="text;html=1;strokeColor=none;fillColor=none;align=center;verticalAlign=middle;whiteSpace=wrap;rounded=0;" parent="1" vertex="1">
                    <mxGeometry x="644" y="-1960" width="66" height="20" as="geometry"/>
                </mxCell>
                <mxCell id="BqpVgTPgoQ1Rq6-j6qBt-146" value="" style="rounded=0;whiteSpace=wrap;html=1;" parent="1" vertex="1">
                    <mxGeometry x="630" y="-1925" width="230" height="50" as="geometry"/>
                </mxCell>
                <mxCell id="BqpVgTPgoQ1Rq6-j6qBt-147" value="Produit 1" style="text;html=1;strokeColor=none;fillColor=none;align=center;verticalAlign=middle;whiteSpace=wrap;rounded=0;" parent="1" vertex="1">
                    <mxGeometry x="644" y="-1910" width="66" height="20" as="geometry"/>
                </mxCell>
                <mxCell id="BqpVgTPgoQ1Rq6-j6qBt-148" value="Valider / Confirmer" style="rounded=1;whiteSpace=wrap;html=1;fillColor=#ffe6cc;strokeColor=#d79b00;" parent="1" vertex="1">
                    <mxGeometry x="640" y="-1775" width="210" height="30" as="geometry"/>
                </mxCell>
                <mxCell id="BqpVgTPgoQ1Rq6-j6qBt-149" value="" style="rounded=0;whiteSpace=wrap;html=1;" parent="1" vertex="1">
                    <mxGeometry x="660" y="-2085" width="120" height="60" as="geometry"/>
                </mxCell>
                <mxCell id="BqpVgTPgoQ1Rq6-j6qBt-150" value="" style="rounded=0;whiteSpace=wrap;html=1;" parent="1" vertex="1">
                    <mxGeometry x="644" y="-2065" width="202" height="210" as="geometry"/>
                </mxCell>
                <mxCell id="BqpVgTPgoQ1Rq6-j6qBt-151" value="Validation..." style="text;html=1;strokeColor=none;fillColor=none;align=center;verticalAlign=middle;whiteSpace=wrap;rounded=0;" parent="1" vertex="1">
                    <mxGeometry x="690" y="-2040" width="110" height="20" as="geometry"/>
                </mxCell>
                <mxCell id="BqpVgTPgoQ1Rq6-j6qBt-153" value="Abondoner" style="rounded=1;whiteSpace=wrap;html=1;fillColor=#f8cecc;strokeColor=#b85450;" parent="1" vertex="1">
                    <mxGeometry x="652" y="-1890" width="188" height="30" as="geometry"/>
                </mxCell>
                <mxCell id="BqpVgTPgoQ1Rq6-j6qBt-154" value="" style="rounded=0;whiteSpace=wrap;html=1;" parent="1" vertex="1">
                    <mxGeometry x="930" y="-2155" width="230" height="420" as="geometry"/>
                </mxCell>
                <mxCell id="BqpVgTPgoQ1Rq6-j6qBt-158" value="" style="ellipse;whiteSpace=wrap;html=1;aspect=fixed;" parent="1" vertex="1">
                    <mxGeometry x="1110" y="-1825" width="40" height="40" as="geometry"/>
                </mxCell>
                <mxCell id="BqpVgTPgoQ1Rq6-j6qBt-159" value="" style="shape=image;html=1;verticalAlign=top;verticalLabelPosition=bottom;labelBackgroundColor=#ffffff;imageAspect=0;aspect=fixed;image=https://cdn1.iconfinder.com/data/icons/heroicons-solid/20/qrcode-128.png" parent="1" vertex="1">
                    <mxGeometry x="1116" y="-1819" width="28" height="28" as="geometry"/>
                </mxCell>
                <mxCell id="BqpVgTPgoQ1Rq6-j6qBt-160" value="" style="rounded=0;whiteSpace=wrap;html=1;" parent="1" vertex="1">
                    <mxGeometry x="930" y="-2125" width="230" height="50" as="geometry"/>
                </mxCell>
                <mxCell id="BqpVgTPgoQ1Rq6-j6qBt-161" value="Produit 1" style="text;html=1;strokeColor=none;fillColor=none;align=center;verticalAlign=middle;whiteSpace=wrap;rounded=0;" parent="1" vertex="1">
                    <mxGeometry x="944" y="-2110" width="66" height="20" as="geometry"/>
                </mxCell>
                <mxCell id="BqpVgTPgoQ1Rq6-j6qBt-162" value="" style="rounded=0;whiteSpace=wrap;html=1;" parent="1" vertex="1">
                    <mxGeometry x="930" y="-2075" width="230" height="50" as="geometry"/>
                </mxCell>
                <mxCell id="BqpVgTPgoQ1Rq6-j6qBt-163" value="Produit 1" style="text;html=1;strokeColor=none;fillColor=none;align=center;verticalAlign=middle;whiteSpace=wrap;rounded=0;" parent="1" vertex="1">
                    <mxGeometry x="944" y="-2060" width="66" height="20" as="geometry"/>
                </mxCell>
                <mxCell id="BqpVgTPgoQ1Rq6-j6qBt-164" value="" style="rounded=0;whiteSpace=wrap;html=1;" parent="1" vertex="1">
                    <mxGeometry x="930" y="-2025" width="230" height="50" as="geometry"/>
                </mxCell>
                <mxCell id="BqpVgTPgoQ1Rq6-j6qBt-165" value="Produit 1" style="text;html=1;strokeColor=none;fillColor=none;align=center;verticalAlign=middle;whiteSpace=wrap;rounded=0;" parent="1" vertex="1">
                    <mxGeometry x="944" y="-2010" width="66" height="20" as="geometry"/>
                </mxCell>
                <mxCell id="BqpVgTPgoQ1Rq6-j6qBt-166" value="" style="rounded=0;whiteSpace=wrap;html=1;" parent="1" vertex="1">
                    <mxGeometry x="930" y="-1975" width="230" height="50" as="geometry"/>
                </mxCell>
                <mxCell id="BqpVgTPgoQ1Rq6-j6qBt-167" value="Produit 1" style="text;html=1;strokeColor=none;fillColor=none;align=center;verticalAlign=middle;whiteSpace=wrap;rounded=0;" parent="1" vertex="1">
                    <mxGeometry x="944" y="-1960" width="66" height="20" as="geometry"/>
                </mxCell>
                <mxCell id="BqpVgTPgoQ1Rq6-j6qBt-168" value="" style="rounded=0;whiteSpace=wrap;html=1;" parent="1" vertex="1">
                    <mxGeometry x="930" y="-1925" width="230" height="50" as="geometry"/>
                </mxCell>
                <mxCell id="BqpVgTPgoQ1Rq6-j6qBt-169" value="Produit 1" style="text;html=1;strokeColor=none;fillColor=none;align=center;verticalAlign=middle;whiteSpace=wrap;rounded=0;" parent="1" vertex="1">
                    <mxGeometry x="944" y="-1910" width="66" height="20" as="geometry"/>
                </mxCell>
                <mxCell id="BqpVgTPgoQ1Rq6-j6qBt-170" value="Valider / Confirmer" style="rounded=1;whiteSpace=wrap;html=1;fillColor=#ffe6cc;strokeColor=#d79b00;" parent="1" vertex="1">
                    <mxGeometry x="940" y="-1775" width="210" height="30" as="geometry"/>
                </mxCell>
                <mxCell id="BqpVgTPgoQ1Rq6-j6qBt-171" value="" style="rounded=0;whiteSpace=wrap;html=1;" parent="1" vertex="1">
                    <mxGeometry x="960" y="-2085" width="120" height="60" as="geometry"/>
                </mxCell>
                <mxCell id="BqpVgTPgoQ1Rq6-j6qBt-172" value="" style="rounded=0;whiteSpace=wrap;html=1;" parent="1" vertex="1">
                    <mxGeometry x="944" y="-2065" width="202" height="210" as="geometry"/>
                </mxCell>
                <mxCell id="BqpVgTPgoQ1Rq6-j6qBt-173" value="Pannier validé" style="text;html=1;strokeColor=none;fillColor=none;align=center;verticalAlign=middle;whiteSpace=wrap;rounded=0;" parent="1" vertex="1">
                    <mxGeometry x="990" y="-2040" width="110" height="20" as="geometry"/>
                </mxCell>
                <mxCell id="BqpVgTPgoQ1Rq6-j6qBt-174" value="" style="shape=image;html=1;verticalAlign=top;verticalLabelPosition=bottom;labelBackgroundColor=#ffffff;imageAspect=0;aspect=fixed;image=https://cdn2.iconfinder.com/data/icons/greenline/512/check-128.png" parent="1" vertex="1">
                    <mxGeometry x="1008" y="-1997.5" width="75" height="75" as="geometry"/>
                </mxCell>
                <mxCell id="BqpVgTPgoQ1Rq6-j6qBt-175" value="Ok" style="rounded=1;whiteSpace=wrap;html=1;fillColor=#ffe6cc;strokeColor=#d79b00;" parent="1" vertex="1">
                    <mxGeometry x="952" y="-1890" width="188" height="30" as="geometry"/>
                </mxCell>
                <mxCell id="BqpVgTPgoQ1Rq6-j6qBt-176" value="" style="html=1;verticalLabelPosition=bottom;labelBackgroundColor=#ffffff;verticalAlign=top;shadow=0;dashed=0;strokeWidth=2;shape=mxgraph.ios7.misc.loading_circle;fillColor=#CCCCCC;" parent="1" vertex="1">
                    <mxGeometry x="711" y="-1997.5" width="70" height="70" as="geometry"/>
                </mxCell>
                <mxCell id="BqpVgTPgoQ1Rq6-j6qBt-177" value="" style="shape=flexArrow;endArrow=classic;html=1;fillColor=#f8cecc;strokeColor=#b85450;" parent="1" edge="1">
                    <mxGeometry width="50" height="50" relative="1" as="geometry">
                        <mxPoint x="243" y="-1760.0000000000002" as="sourcePoint"/>
                        <mxPoint x="330" y="-1760" as="targetPoint"/>
                    </mxGeometry>
                </mxCell>
                <mxCell id="BqpVgTPgoQ1Rq6-j6qBt-179" value="" style="shape=flexArrow;endArrow=classic;html=1;fillColor=#f8cecc;strokeColor=#b85450;" parent="1" edge="1">
                    <mxGeometry width="50" height="50" relative="1" as="geometry">
                        <mxPoint x="533" y="-1875.5900000000001" as="sourcePoint"/>
                        <mxPoint x="620" y="-1876" as="targetPoint"/>
                    </mxGeometry>
                </mxCell>
                <mxCell id="BqpVgTPgoQ1Rq6-j6qBt-180" value="" style="shape=flexArrow;endArrow=classic;html=1;fillColor=#f8cecc;strokeColor=#b85450;exitX=0.97;exitY=0.595;exitDx=0;exitDy=0;exitPerimeter=0;" parent="1" source="BqpVgTPgoQ1Rq6-j6qBt-150" edge="1">
                    <mxGeometry width="50" height="50" relative="1" as="geometry">
                        <mxPoint x="830" y="-1874.5900000000001" as="sourcePoint"/>
                        <mxPoint x="916.9999999999995" y="-1875" as="targetPoint"/>
                    </mxGeometry>
                </mxCell>
                <mxCell id="BqpVgTPgoQ1Rq6-j6qBt-196" value="" style="shape=flexArrow;endArrow=classic;html=1;fillColor=#f8cecc;strokeColor=#b85450;" parent="1" edge="1">
                    <mxGeometry width="50" height="50" relative="1" as="geometry">
                        <mxPoint x="1130" y="-1875" as="sourcePoint"/>
                        <mxPoint x="-410" y="-2130" as="targetPoint"/>
                        <Array as="points">
                            <mxPoint x="1220" y="-1910"/>
                            <mxPoint x="1220" y="-2210"/>
                            <mxPoint x="-290" y="-2210"/>
                        </Array>
                    </mxGeometry>
                </mxCell>
                <mxCell id="BqpVgTPgoQ1Rq6-j6qBt-222" value="" style="rounded=0;whiteSpace=wrap;html=1;" parent="1" vertex="1">
                    <mxGeometry x="930" y="-1710" width="230" height="420" as="geometry"/>
                </mxCell>
                <mxCell id="BqpVgTPgoQ1Rq6-j6qBt-226" value="" style="ellipse;whiteSpace=wrap;html=1;aspect=fixed;" parent="1" vertex="1">
                    <mxGeometry x="1110" y="-1380" width="40" height="40" as="geometry"/>
                </mxCell>
                <mxCell id="BqpVgTPgoQ1Rq6-j6qBt-227" value="" style="shape=image;html=1;verticalAlign=top;verticalLabelPosition=bottom;labelBackgroundColor=#ffffff;imageAspect=0;aspect=fixed;image=https://cdn1.iconfinder.com/data/icons/heroicons-solid/20/qrcode-128.png" parent="1" vertex="1">
                    <mxGeometry x="1116" y="-1374" width="28" height="28" as="geometry"/>
                </mxCell>
                <mxCell id="BqpVgTPgoQ1Rq6-j6qBt-228" value="" style="rounded=0;whiteSpace=wrap;html=1;" parent="1" vertex="1">
                    <mxGeometry x="930" y="-1680" width="230" height="50" as="geometry"/>
                </mxCell>
                <mxCell id="BqpVgTPgoQ1Rq6-j6qBt-229" value="Produit 1" style="text;html=1;strokeColor=none;fillColor=none;align=center;verticalAlign=middle;whiteSpace=wrap;rounded=0;" parent="1" vertex="1">
                    <mxGeometry x="944" y="-1665" width="66" height="20" as="geometry"/>
                </mxCell>
                <mxCell id="BqpVgTPgoQ1Rq6-j6qBt-230" value="" style="rounded=0;whiteSpace=wrap;html=1;" parent="1" vertex="1">
                    <mxGeometry x="930" y="-1630" width="230" height="50" as="geometry"/>
                </mxCell>
                <mxCell id="BqpVgTPgoQ1Rq6-j6qBt-231" value="Produit 1" style="text;html=1;strokeColor=none;fillColor=none;align=center;verticalAlign=middle;whiteSpace=wrap;rounded=0;" parent="1" vertex="1">
                    <mxGeometry x="944" y="-1615" width="66" height="20" as="geometry"/>
                </mxCell>
                <mxCell id="BqpVgTPgoQ1Rq6-j6qBt-232" value="" style="rounded=0;whiteSpace=wrap;html=1;" parent="1" vertex="1">
                    <mxGeometry x="930" y="-1580" width="230" height="50" as="geometry"/>
                </mxCell>
                <mxCell id="BqpVgTPgoQ1Rq6-j6qBt-233" value="Produit 1" style="text;html=1;strokeColor=none;fillColor=none;align=center;verticalAlign=middle;whiteSpace=wrap;rounded=0;" parent="1" vertex="1">
                    <mxGeometry x="944" y="-1565" width="66" height="20" as="geometry"/>
                </mxCell>
                <mxCell id="BqpVgTPgoQ1Rq6-j6qBt-234" value="" style="rounded=0;whiteSpace=wrap;html=1;" parent="1" vertex="1">
                    <mxGeometry x="930" y="-1530" width="230" height="50" as="geometry"/>
                </mxCell>
                <mxCell id="BqpVgTPgoQ1Rq6-j6qBt-235" value="Produit 1" style="text;html=1;strokeColor=none;fillColor=none;align=center;verticalAlign=middle;whiteSpace=wrap;rounded=0;" parent="1" vertex="1">
                    <mxGeometry x="944" y="-1515" width="66" height="20" as="geometry"/>
                </mxCell>
                <mxCell id="BqpVgTPgoQ1Rq6-j6qBt-236" value="" style="rounded=0;whiteSpace=wrap;html=1;" parent="1" vertex="1">
                    <mxGeometry x="930" y="-1480" width="230" height="50" as="geometry"/>
                </mxCell>
                <mxCell id="BqpVgTPgoQ1Rq6-j6qBt-237" value="Produit 1" style="text;html=1;strokeColor=none;fillColor=none;align=center;verticalAlign=middle;whiteSpace=wrap;rounded=0;" parent="1" vertex="1">
                    <mxGeometry x="944" y="-1465" width="66" height="20" as="geometry"/>
                </mxCell>
                <mxCell id="BqpVgTPgoQ1Rq6-j6qBt-238" value="Valider / Confirmer" style="rounded=1;whiteSpace=wrap;html=1;fillColor=#ffe6cc;strokeColor=#d79b00;" parent="1" vertex="1">
                    <mxGeometry x="940" y="-1330" width="210" height="30" as="geometry"/>
                </mxCell>
                <mxCell id="BqpVgTPgoQ1Rq6-j6qBt-239" value="" style="rounded=0;whiteSpace=wrap;html=1;" parent="1" vertex="1">
                    <mxGeometry x="960" y="-1640" width="120" height="60" as="geometry"/>
                </mxCell>
                <mxCell id="BqpVgTPgoQ1Rq6-j6qBt-240" value="" style="rounded=0;whiteSpace=wrap;html=1;" parent="1" vertex="1">
                    <mxGeometry x="944" y="-1620" width="202" height="210" as="geometry"/>
                </mxCell>
                <mxCell id="BqpVgTPgoQ1Rq6-j6qBt-241" value="Network error" style="text;html=1;strokeColor=none;fillColor=none;align=center;verticalAlign=middle;whiteSpace=wrap;rounded=0;" parent="1" vertex="1">
                    <mxGeometry x="990" y="-1595" width="110" height="20" as="geometry"/>
                </mxCell>
                <mxCell id="BqpVgTPgoQ1Rq6-j6qBt-243" value="Ok" style="rounded=1;whiteSpace=wrap;html=1;fillColor=#ffe6cc;strokeColor=#d79b00;" parent="1" vertex="1">
                    <mxGeometry x="952" y="-1445" width="188" height="30" as="geometry"/>
                </mxCell>
                <mxCell id="BqpVgTPgoQ1Rq6-j6qBt-244" value="" style="shape=image;html=1;verticalAlign=top;verticalLabelPosition=bottom;labelBackgroundColor=#ffffff;imageAspect=0;aspect=fixed;image=https://cdn0.iconfinder.com/data/icons/small-n-flat/24/678069-sign-error-128.png;fillColor=#CCCCCC;" parent="1" vertex="1">
                    <mxGeometry x="1008" y="-1560" width="80" height="80" as="geometry"/>
                </mxCell>
                <mxCell id="BqpVgTPgoQ1Rq6-j6qBt-245" value="" style="shape=flexArrow;endArrow=classic;html=1;fillColor=#f8cecc;strokeColor=#b85450;" parent="1" edge="1">
                    <mxGeometry width="50" height="50" relative="1" as="geometry">
                        <mxPoint x="840" y="-1930" as="sourcePoint"/>
                        <mxPoint x="917" y="-1690" as="targetPoint"/>
                    </mxGeometry>
                </mxCell>
                <mxCell id="BqpVgTPgoQ1Rq6-j6qBt-246" value="" style="shape=flexArrow;endArrow=classic;html=1;fillColor=#f8cecc;strokeColor=#b85450;exitX=0.096;exitY=0.5;exitDx=0;exitDy=0;exitPerimeter=0;" parent="1" source="BqpVgTPgoQ1Rq6-j6qBt-243" edge="1">
                    <mxGeometry width="50" height="50" relative="1" as="geometry">
                        <mxPoint x="770" y="-1685.0000000000007" as="sourcePoint"/>
                        <mxPoint x="250" y="-1720" as="targetPoint"/>
                        <Array as="points">
                            <mxPoint x="900" y="-1430"/>
                            <mxPoint x="820" y="-1660"/>
                            <mxPoint x="330" y="-1660"/>
                        </Array>
                    </mxGeometry>
                </mxCell>
                <mxCell id="mIdTPX20SfCYBvM09sPf-4" value="15€" style="text;html=1;strokeColor=none;fillColor=none;align=center;verticalAlign=middle;whiteSpace=wrap;rounded=0;" parent="1" vertex="1">
                    <mxGeometry x="224" y="-2110" width="40" height="20" as="geometry"/>
                </mxCell>
                <mxCell id="mIdTPX20SfCYBvM09sPf-5" value="5€" style="text;html=1;strokeColor=none;fillColor=none;align=center;verticalAlign=middle;whiteSpace=wrap;rounded=0;" parent="1" vertex="1">
                    <mxGeometry x="224" y="-2060" width="40" height="20" as="geometry"/>
                </mxCell>
                <mxCell id="mIdTPX20SfCYBvM09sPf-6" value="5€" style="text;html=1;strokeColor=none;fillColor=none;align=center;verticalAlign=middle;whiteSpace=wrap;rounded=0;" parent="1" vertex="1">
                    <mxGeometry x="224" y="-1912.5" width="40" height="20" as="geometry"/>
                </mxCell>
                <mxCell id="mIdTPX20SfCYBvM09sPf-7" value="15€" style="text;html=1;strokeColor=none;fillColor=none;align=center;verticalAlign=middle;whiteSpace=wrap;rounded=0;" parent="1" vertex="1">
                    <mxGeometry x="224" y="-1962.5" width="40" height="20" as="geometry"/>
                </mxCell>
                <mxCell id="mIdTPX20SfCYBvM09sPf-9" value="15€" style="text;html=1;strokeColor=none;fillColor=none;align=center;verticalAlign=middle;whiteSpace=wrap;rounded=0;" parent="1" vertex="1">
                    <mxGeometry x="510" y="-2110" width="40" height="20" as="geometry"/>
                </mxCell>
                <mxCell id="mIdTPX20SfCYBvM09sPf-11" value="15€" style="text;html=1;strokeColor=none;fillColor=none;align=center;verticalAlign=middle;whiteSpace=wrap;rounded=0;" parent="1" vertex="1">
                    <mxGeometry x="806" y="-2110" width="40" height="20" as="geometry"/>
                </mxCell>
                <mxCell id="mIdTPX20SfCYBvM09sPf-13" value="15€" style="text;html=1;strokeColor=none;fillColor=none;align=center;verticalAlign=middle;whiteSpace=wrap;rounded=0;" parent="1" vertex="1">
                    <mxGeometry x="1104" y="-2110" width="40" height="20" as="geometry"/>
                </mxCell>
                <mxCell id="mIdTPX20SfCYBvM09sPf-14" value="15€" style="text;html=1;strokeColor=none;fillColor=none;align=center;verticalAlign=middle;whiteSpace=wrap;rounded=0;" parent="1" vertex="1">
                    <mxGeometry x="1104" y="-1665" width="40" height="20" as="geometry"/>
                </mxCell>
                <mxCell id="mIdTPX20SfCYBvM09sPf-15" value="&lt;b&gt;Total :&amp;nbsp;&amp;nbsp; 40€&lt;/b&gt;" style="text;html=1;strokeColor=none;fillColor=none;align=left;verticalAlign=middle;whiteSpace=wrap;rounded=0;" parent="1" vertex="1">
                    <mxGeometry x="354" y="-1805" width="116" height="20" as="geometry"/>
                </mxCell>
                <mxCell id="mIdTPX20SfCYBvM09sPf-16" value="&lt;b&gt;Total :&amp;nbsp;&amp;nbsp; 40€&lt;/b&gt;" style="text;html=1;strokeColor=none;fillColor=none;align=left;verticalAlign=middle;whiteSpace=wrap;rounded=0;" parent="1" vertex="1">
                    <mxGeometry x="64" y="-1805" width="116" height="20" as="geometry"/>
                </mxCell>
                <mxCell id="mIdTPX20SfCYBvM09sPf-17" value="&lt;b&gt;Total :&amp;nbsp;&amp;nbsp; 40€&lt;/b&gt;" style="text;html=1;strokeColor=none;fillColor=none;align=left;verticalAlign=middle;whiteSpace=wrap;rounded=0;" parent="1" vertex="1">
                    <mxGeometry x="644" y="-1805" width="116" height="20" as="geometry"/>
                </mxCell>
                <mxCell id="mIdTPX20SfCYBvM09sPf-18" value="&lt;b&gt;Total :&amp;nbsp;&amp;nbsp; 40€&lt;/b&gt;" style="text;html=1;strokeColor=none;fillColor=none;align=left;verticalAlign=middle;whiteSpace=wrap;rounded=0;" parent="1" vertex="1">
                    <mxGeometry x="944" y="-1805" width="116" height="20" as="geometry"/>
                </mxCell>
                <mxCell id="mIdTPX20SfCYBvM09sPf-19" value="&lt;b&gt;Total :&amp;nbsp;&amp;nbsp; 40€&lt;/b&gt;" style="text;html=1;strokeColor=none;fillColor=none;align=left;verticalAlign=middle;whiteSpace=wrap;rounded=0;" parent="1" vertex="1">
                    <mxGeometry x="944" y="-1360" width="116" height="20" as="geometry"/>
                </mxCell>
                <mxCell id="mIdTPX20SfCYBvM09sPf-20" value="&lt;b&gt;Total :&amp;nbsp;&amp;nbsp; 40€&lt;/b&gt;" style="text;html=1;strokeColor=none;fillColor=none;align=left;verticalAlign=middle;whiteSpace=wrap;rounded=0;" parent="1" vertex="1">
                    <mxGeometry x="421" y="-1947.5" width="70" height="20" as="geometry"/>
                </mxCell>
                <mxCell id="mIdTPX20SfCYBvM09sPf-61" value="" style="rounded=0;whiteSpace=wrap;html=1;" parent="1" vertex="1">
                    <mxGeometry x="637" y="-2697.13" width="403" height="50" as="geometry"/>
                </mxCell>
                <mxCell id="mIdTPX20SfCYBvM09sPf-62" value="Produit 1" style="text;html=1;strokeColor=none;fillColor=none;align=center;verticalAlign=middle;whiteSpace=wrap;rounded=0;" parent="1" vertex="1">
                    <mxGeometry x="647" y="-2691.06" width="66" height="20" as="geometry"/>
                </mxCell>
                <mxCell id="mIdTPX20SfCYBvM09sPf-63" value="&lt;font style=&quot;font-size: 10px&quot;&gt;15€&lt;/font&gt;&lt;font style=&quot;font-size: 10px&quot;&gt;&amp;nbsp;&amp;nbsp; - &amp;nbsp; Prix d'achat : 10€&lt;/font&gt;" style="text;html=1;strokeColor=none;fillColor=none;align=left;verticalAlign=middle;whiteSpace=wrap;rounded=0;fontColor=#666666;" parent="1" vertex="1">
                    <mxGeometry x="654.25" y="-2675.06" width="125.75" height="20" as="geometry"/>
                </mxCell>
                <mxCell id="mIdTPX20SfCYBvM09sPf-64" value="Quantité : 27" style="text;html=1;strokeColor=none;fillColor=none;align=center;verticalAlign=middle;whiteSpace=wrap;rounded=0;" parent="1" vertex="1">
                    <mxGeometry x="952.75" y="-2682.13" width="77" height="20" as="geometry"/>
                </mxCell>
                <mxCell id="mIdTPX20SfCYBvM09sPf-65" value="" style="rounded=0;whiteSpace=wrap;html=1;" parent="1" vertex="1">
                    <mxGeometry x="637" y="-2639" width="403" height="50" as="geometry"/>
                </mxCell>
                <mxCell id="mIdTPX20SfCYBvM09sPf-66" value="Produit 2" style="text;html=1;strokeColor=none;fillColor=none;align=center;verticalAlign=middle;whiteSpace=wrap;rounded=0;" parent="1" vertex="1">
                    <mxGeometry x="647" y="-2632.93" width="66" height="20" as="geometry"/>
                </mxCell>
                <mxCell id="mIdTPX20SfCYBvM09sPf-67" value="&lt;font style=&quot;font-size: 10px&quot;&gt;10€&lt;/font&gt;&lt;font style=&quot;font-size: 10px&quot;&gt;&amp;nbsp;&amp;nbsp; - &amp;nbsp; Prix d'achat : 7€&lt;/font&gt;" style="text;html=1;strokeColor=none;fillColor=none;align=left;verticalAlign=middle;whiteSpace=wrap;rounded=0;fontColor=#666666;" parent="1" vertex="1">
                    <mxGeometry x="654.25" y="-2616.93" width="125.75" height="20" as="geometry"/>
                </mxCell>
                <mxCell id="mIdTPX20SfCYBvM09sPf-68" value="Quantité : 32" style="text;html=1;strokeColor=none;fillColor=none;align=center;verticalAlign=middle;whiteSpace=wrap;rounded=0;" parent="1" vertex="1">
                    <mxGeometry x="952.75" y="-2624" width="77" height="20" as="geometry"/>
                </mxCell>
                <mxCell id="mIdTPX20SfCYBvM09sPf-69" value="" style="rounded=0;whiteSpace=wrap;html=1;" parent="1" vertex="1">
                    <mxGeometry x="637" y="-2579" width="403" height="50" as="geometry"/>
                </mxCell>
                <mxCell id="mIdTPX20SfCYBvM09sPf-70" value="Produit 3" style="text;html=1;strokeColor=none;fillColor=none;align=center;verticalAlign=middle;whiteSpace=wrap;rounded=0;" parent="1" vertex="1">
                    <mxGeometry x="647" y="-2572.93" width="66" height="20" as="geometry"/>
                </mxCell>
                <mxCell id="mIdTPX20SfCYBvM09sPf-71" value="&lt;font style=&quot;font-size: 10px&quot;&gt;9€&lt;/font&gt;&lt;font style=&quot;font-size: 10px&quot;&gt;&amp;nbsp;&amp;nbsp; - &amp;nbsp; Prix d'achat : 8€&lt;/font&gt;" style="text;html=1;strokeColor=none;fillColor=none;align=left;verticalAlign=middle;whiteSpace=wrap;rounded=0;fontColor=#666666;" parent="1" vertex="1">
                    <mxGeometry x="654.25" y="-2556.93" width="125.75" height="20" as="geometry"/>
                </mxCell>
                <mxCell id="mIdTPX20SfCYBvM09sPf-72" value="Quantité : 15" style="text;html=1;strokeColor=none;fillColor=none;align=center;verticalAlign=middle;whiteSpace=wrap;rounded=0;" parent="1" vertex="1">
                    <mxGeometry x="952.75" y="-2564" width="77" height="20" as="geometry"/>
                </mxCell>
                <mxCell id="mIdTPX20SfCYBvM09sPf-73" value="" style="rounded=0;whiteSpace=wrap;html=1;" parent="1" vertex="1">
                    <mxGeometry x="637" y="-2519" width="403" height="50" as="geometry"/>
                </mxCell>
                <mxCell id="mIdTPX20SfCYBvM09sPf-74" value="Produit 4" style="text;html=1;strokeColor=none;fillColor=none;align=center;verticalAlign=middle;whiteSpace=wrap;rounded=0;" parent="1" vertex="1">
                    <mxGeometry x="647" y="-2512.93" width="66" height="20" as="geometry"/>
                </mxCell>
                <mxCell id="mIdTPX20SfCYBvM09sPf-75" value="&lt;font style=&quot;font-size: 10px&quot;&gt;13€&lt;/font&gt;&lt;font style=&quot;font-size: 10px&quot;&gt;&amp;nbsp;&amp;nbsp; - &amp;nbsp; Prix d'achat : 10€&lt;/font&gt;" style="text;html=1;strokeColor=none;fillColor=none;align=left;verticalAlign=middle;whiteSpace=wrap;rounded=0;fontColor=#666666;" parent="1" vertex="1">
                    <mxGeometry x="654.25" y="-2496.93" width="125.75" height="20" as="geometry"/>
                </mxCell>
                <mxCell id="mIdTPX20SfCYBvM09sPf-76" value="Quantité : 42" style="text;html=1;strokeColor=none;fillColor=none;align=center;verticalAlign=middle;whiteSpace=wrap;rounded=0;" parent="1" vertex="1">
                    <mxGeometry x="952.75" y="-2504" width="77" height="20" as="geometry"/>
                </mxCell>
                <mxCell id="mIdTPX20SfCYBvM09sPf-77" value="" style="rounded=0;whiteSpace=wrap;html=1;" parent="1" vertex="1">
                    <mxGeometry x="637" y="-2459" width="403" height="50" as="geometry"/>
                </mxCell>
                <mxCell id="mIdTPX20SfCYBvM09sPf-78" value="Produit 5" style="text;html=1;strokeColor=none;fillColor=none;align=center;verticalAlign=middle;whiteSpace=wrap;rounded=0;" parent="1" vertex="1">
                    <mxGeometry x="647" y="-2452.93" width="66" height="20" as="geometry"/>
                </mxCell>
                <mxCell id="mIdTPX20SfCYBvM09sPf-79" value="&lt;font style=&quot;font-size: 10px&quot;&gt;15€&lt;/font&gt;&lt;font style=&quot;font-size: 10px&quot;&gt;&amp;nbsp;&amp;nbsp; - &amp;nbsp; Prix d'achat : 10€&lt;/font&gt;" style="text;html=1;strokeColor=none;fillColor=none;align=left;verticalAlign=middle;whiteSpace=wrap;rounded=0;fontColor=#666666;" parent="1" vertex="1">
                    <mxGeometry x="654.25" y="-2436.93" width="125.75" height="20" as="geometry"/>
                </mxCell>
                <mxCell id="mIdTPX20SfCYBvM09sPf-80" value="Quantité : 18" style="text;html=1;strokeColor=none;fillColor=none;align=center;verticalAlign=middle;whiteSpace=wrap;rounded=0;" parent="1" vertex="1">
                    <mxGeometry x="952.75" y="-2444" width="77" height="20" as="geometry"/>
                </mxCell>
                <mxCell id="mIdTPX20SfCYBvM09sPf-147" value="&lt;font style=&quot;font-size: 10px&quot;&gt;Trier par&lt;/font&gt;" style="text;html=1;strokeColor=none;fillColor=none;align=center;verticalAlign=middle;whiteSpace=wrap;rounded=0;fontColor=#000000;" parent="1" vertex="1">
                    <mxGeometry x="970" y="-2729" width="57" height="20" as="geometry"/>
                </mxCell>
                <mxCell id="mIdTPX20SfCYBvM09sPf-148" value="" style="shape=image;html=1;verticalAlign=top;verticalLabelPosition=bottom;labelBackgroundColor=#ffffff;imageAspect=0;aspect=fixed;image=https://cdn3.iconfinder.com/data/icons/user-interface-169/32/chevron-bottom-128.png;align=left;" parent="1" vertex="1">
                    <mxGeometry x="1027" y="-2722" width="10" height="10" as="geometry"/>
                </mxCell>
                <mxCell id="tgF3T0BNK082DmQzEgRz-1" value="entries" style="shape=table;startSize=30;container=1;collapsible=1;childLayout=tableLayout;fixedRows=1;rowLines=0;fontStyle=1;align=center;resizeLast=1;" parent="1" vertex="1">
                    <mxGeometry x="-573.85" y="-2972.93" width="180" height="220" as="geometry"/>
                </mxCell>
                <mxCell id="tgF3T0BNK082DmQzEgRz-2" value="" style="shape=partialRectangle;collapsible=0;dropTarget=0;pointerEvents=0;fillColor=none;top=0;left=0;bottom=1;right=0;points=[[0,0.5],[1,0.5]];portConstraint=eastwest;" parent="tgF3T0BNK082DmQzEgRz-1" vertex="1">
                    <mxGeometry y="30" width="180" height="30" as="geometry"/>
                </mxCell>
                <mxCell id="tgF3T0BNK082DmQzEgRz-3" value="PK" style="shape=partialRectangle;connectable=0;fillColor=none;top=0;left=0;bottom=0;right=0;fontStyle=1;overflow=hidden;" parent="tgF3T0BNK082DmQzEgRz-2" vertex="1">
                    <mxGeometry width="30" height="30" as="geometry"/>
                </mxCell>
                <mxCell id="tgF3T0BNK082DmQzEgRz-4" value="id" style="shape=partialRectangle;connectable=0;fillColor=none;top=0;left=0;bottom=0;right=0;align=left;spacingLeft=6;fontStyle=5;overflow=hidden;" parent="tgF3T0BNK082DmQzEgRz-2" vertex="1">
                    <mxGeometry x="30" width="150" height="30" as="geometry"/>
                </mxCell>
                <mxCell id="2" value="" style="shape=partialRectangle;collapsible=0;dropTarget=0;pointerEvents=0;fillColor=none;top=0;left=0;bottom=0;right=0;points=[[0,0.5],[1,0.5]];portConstraint=eastwest;" parent="tgF3T0BNK082DmQzEgRz-1" vertex="1">
                    <mxGeometry y="60" width="180" height="30" as="geometry"/>
                </mxCell>
                <mxCell id="3" value="FK" style="shape=partialRectangle;connectable=0;fillColor=none;top=0;left=0;bottom=0;right=0;editable=1;overflow=hidden;fontStyle=1" parent="2" vertex="1">
                    <mxGeometry width="30" height="30" as="geometry"/>
                </mxCell>
                <mxCell id="4" value="product" style="shape=partialRectangle;connectable=0;fillColor=none;top=0;left=0;bottom=0;right=0;align=left;spacingLeft=6;overflow=hidden;" parent="2" vertex="1">
                    <mxGeometry x="30" width="150" height="30" as="geometry"/>
                </mxCell>
                <mxCell id="tgF3T0BNK082DmQzEgRz-5" value="" style="shape=partialRectangle;collapsible=0;dropTarget=0;pointerEvents=0;fillColor=none;top=0;left=0;bottom=0;right=0;points=[[0,0.5],[1,0.5]];portConstraint=eastwest;" parent="tgF3T0BNK082DmQzEgRz-1" vertex="1">
                    <mxGeometry y="90" width="180" height="30" as="geometry"/>
                </mxCell>
                <mxCell id="tgF3T0BNK082DmQzEgRz-6" value="" style="shape=partialRectangle;connectable=0;fillColor=none;top=0;left=0;bottom=0;right=0;editable=1;overflow=hidden;" parent="tgF3T0BNK082DmQzEgRz-5" vertex="1">
                    <mxGeometry width="30" height="30" as="geometry"/>
                </mxCell>
                <mxCell id="tgF3T0BNK082DmQzEgRz-7" value="name" style="shape=partialRectangle;connectable=0;fillColor=none;top=0;left=0;bottom=0;right=0;align=left;spacingLeft=6;overflow=hidden;" parent="tgF3T0BNK082DmQzEgRz-5" vertex="1">
                    <mxGeometry x="30" width="150" height="30" as="geometry"/>
                </mxCell>
                <mxCell id="tgF3T0BNK082DmQzEgRz-11" value="" style="shape=partialRectangle;collapsible=0;dropTarget=0;pointerEvents=0;fillColor=none;top=0;left=0;bottom=0;right=0;points=[[0,0.5],[1,0.5]];portConstraint=eastwest;" parent="tgF3T0BNK082DmQzEgRz-1" vertex="1">
                    <mxGeometry y="120" width="180" height="30" as="geometry"/>
                </mxCell>
                <mxCell id="tgF3T0BNK082DmQzEgRz-12" value="" style="shape=partialRectangle;connectable=0;fillColor=none;top=0;left=0;bottom=0;right=0;editable=1;overflow=hidden;" parent="tgF3T0BNK082DmQzEgRz-11" vertex="1">
                    <mxGeometry width="30" height="30" as="geometry"/>
                </mxCell>
                <mxCell id="tgF3T0BNK082DmQzEgRz-13" value="created_date" style="shape=partialRectangle;connectable=0;fillColor=none;top=0;left=0;bottom=0;right=0;align=left;spacingLeft=6;overflow=hidden;" parent="tgF3T0BNK082DmQzEgRz-11" vertex="1">
                    <mxGeometry x="30" width="150" height="30" as="geometry"/>
                </mxCell>
                <mxCell id="tgF3T0BNK082DmQzEgRz-91" value="" style="shape=partialRectangle;collapsible=0;dropTarget=0;pointerEvents=0;fillColor=none;top=0;left=0;bottom=0;right=0;points=[[0,0.5],[1,0.5]];portConstraint=eastwest;" parent="tgF3T0BNK082DmQzEgRz-1" vertex="1">
                    <mxGeometry y="150" width="180" height="30" as="geometry"/>
                </mxCell>
                <mxCell id="tgF3T0BNK082DmQzEgRz-92" value="" style="shape=partialRectangle;connectable=0;fillColor=none;top=0;left=0;bottom=0;right=0;editable=1;overflow=hidden;" parent="tgF3T0BNK082DmQzEgRz-91" vertex="1">
                    <mxGeometry width="30" height="30" as="geometry"/>
                </mxCell>
                <mxCell id="tgF3T0BNK082DmQzEgRz-93" value="updated_date" style="shape=partialRectangle;connectable=0;fillColor=none;top=0;left=0;bottom=0;right=0;align=left;spacingLeft=6;overflow=hidden;" parent="tgF3T0BNK082DmQzEgRz-91" vertex="1">
                    <mxGeometry x="30" width="150" height="30" as="geometry"/>
                </mxCell>
                <mxCell id="tgF3T0BNK082DmQzEgRz-103" value="" style="shape=partialRectangle;collapsible=0;dropTarget=0;pointerEvents=0;fillColor=none;top=0;left=0;bottom=0;right=0;points=[[0,0.5],[1,0.5]];portConstraint=eastwest;" parent="tgF3T0BNK082DmQzEgRz-1" vertex="1">
                    <mxGeometry y="180" width="180" height="30" as="geometry"/>
                </mxCell>
                <mxCell id="tgF3T0BNK082DmQzEgRz-104" value="" style="shape=partialRectangle;connectable=0;fillColor=none;top=0;left=0;bottom=0;right=0;editable=1;overflow=hidden;" parent="tgF3T0BNK082DmQzEgRz-103" vertex="1">
                    <mxGeometry width="30" height="30" as="geometry"/>
                </mxCell>
                <mxCell id="tgF3T0BNK082DmQzEgRz-105" value="deleted_date" style="shape=partialRectangle;connectable=0;fillColor=none;top=0;left=0;bottom=0;right=0;align=left;spacingLeft=6;overflow=hidden;" parent="tgF3T0BNK082DmQzEgRz-103" vertex="1">
                    <mxGeometry x="30" width="150" height="30" as="geometry"/>
                </mxCell>
                <mxCell id="tgF3T0BNK082DmQzEgRz-30" value="sales" style="shape=table;startSize=30;container=1;collapsible=1;childLayout=tableLayout;fixedRows=1;rowLines=0;fontStyle=1;align=center;resizeLast=1;" parent="1" vertex="1">
                    <mxGeometry x="-40.000000000000014" y="-2959.06" width="200" height="190" as="geometry"/>
                </mxCell>
                <mxCell id="tgF3T0BNK082DmQzEgRz-31" value="" style="shape=partialRectangle;collapsible=0;dropTarget=0;pointerEvents=0;fillColor=none;top=0;left=0;bottom=1;right=0;points=[[0,0.5],[1,0.5]];portConstraint=eastwest;" parent="tgF3T0BNK082DmQzEgRz-30" vertex="1">
                    <mxGeometry y="30" width="200" height="30" as="geometry"/>
                </mxCell>
                <mxCell id="tgF3T0BNK082DmQzEgRz-32" value="PK" style="shape=partialRectangle;connectable=0;fillColor=none;top=0;left=0;bottom=0;right=0;fontStyle=1;overflow=hidden;" parent="tgF3T0BNK082DmQzEgRz-31" vertex="1">
                    <mxGeometry width="30" height="30" as="geometry"/>
                </mxCell>
                <mxCell id="tgF3T0BNK082DmQzEgRz-33" value="id" style="shape=partialRectangle;connectable=0;fillColor=none;top=0;left=0;bottom=0;right=0;align=left;spacingLeft=6;fontStyle=5;overflow=hidden;" parent="tgF3T0BNK082DmQzEgRz-31" vertex="1">
                    <mxGeometry x="30" width="170" height="30" as="geometry"/>
                </mxCell>
                <mxCell id="tgF3T0BNK082DmQzEgRz-40" value="" style="shape=partialRectangle;collapsible=0;dropTarget=0;pointerEvents=0;fillColor=none;top=0;left=0;bottom=0;right=0;points=[[0,0.5],[1,0.5]];portConstraint=eastwest;" parent="tgF3T0BNK082DmQzEgRz-30" vertex="1">
                    <mxGeometry y="60" width="200" height="30" as="geometry"/>
                </mxCell>
                <mxCell id="tgF3T0BNK082DmQzEgRz-41" value="FK" style="shape=partialRectangle;connectable=0;fillColor=none;top=0;left=0;bottom=0;right=0;editable=1;overflow=hidden;fontStyle=1" parent="tgF3T0BNK082DmQzEgRz-40" vertex="1">
                    <mxGeometry width="30" height="30" as="geometry"/>
                </mxCell>
                <mxCell id="tgF3T0BNK082DmQzEgRz-42" value="payement_method_id" style="shape=partialRectangle;connectable=0;fillColor=none;top=0;left=0;bottom=0;right=0;align=left;spacingLeft=6;overflow=hidden;" parent="tgF3T0BNK082DmQzEgRz-40" vertex="1">
                    <mxGeometry x="30" width="170" height="30" as="geometry"/>
                </mxCell>
                <mxCell id="tgF3T0BNK082DmQzEgRz-109" value="" style="shape=partialRectangle;collapsible=0;dropTarget=0;pointerEvents=0;fillColor=none;top=0;left=0;bottom=0;right=0;points=[[0,0.5],[1,0.5]];portConstraint=eastwest;" parent="tgF3T0BNK082DmQzEgRz-30" vertex="1">
                    <mxGeometry y="90" width="200" height="30" as="geometry"/>
                </mxCell>
                <mxCell id="tgF3T0BNK082DmQzEgRz-110" value="" style="shape=partialRectangle;connectable=0;fillColor=none;top=0;left=0;bottom=0;right=0;editable=1;overflow=hidden;" parent="tgF3T0BNK082DmQzEgRz-109" vertex="1">
                    <mxGeometry width="30" height="30" as="geometry"/>
                </mxCell>
                <mxCell id="tgF3T0BNK082DmQzEgRz-111" value="created_date" style="shape=partialRectangle;connectable=0;fillColor=none;top=0;left=0;bottom=0;right=0;align=left;spacingLeft=6;overflow=hidden;" parent="tgF3T0BNK082DmQzEgRz-109" vertex="1">
                    <mxGeometry x="30" width="170" height="30" as="geometry"/>
                </mxCell>
                <mxCell id="tgF3T0BNK082DmQzEgRz-115" value="" style="shape=partialRectangle;collapsible=0;dropTarget=0;pointerEvents=0;fillColor=none;top=0;left=0;bottom=0;right=0;points=[[0,0.5],[1,0.5]];portConstraint=eastwest;" parent="tgF3T0BNK082DmQzEgRz-30" vertex="1">
                    <mxGeometry y="120" width="200" height="30" as="geometry"/>
                </mxCell>
                <mxCell id="tgF3T0BNK082DmQzEgRz-116" value="" style="shape=partialRectangle;connectable=0;fillColor=none;top=0;left=0;bottom=0;right=0;editable=1;overflow=hidden;" parent="tgF3T0BNK082DmQzEgRz-115" vertex="1">
                    <mxGeometry width="30" height="30" as="geometry"/>
                </mxCell>
                <mxCell id="tgF3T0BNK082DmQzEgRz-117" value="updated_date" style="shape=partialRectangle;connectable=0;fillColor=none;top=0;left=0;bottom=0;right=0;align=left;spacingLeft=6;overflow=hidden;" parent="tgF3T0BNK082DmQzEgRz-115" vertex="1">
                    <mxGeometry x="30" width="170" height="30" as="geometry"/>
                </mxCell>
                <mxCell id="tgF3T0BNK082DmQzEgRz-121" value="" style="shape=partialRectangle;collapsible=0;dropTarget=0;pointerEvents=0;fillColor=none;top=0;left=0;bottom=0;right=0;points=[[0,0.5],[1,0.5]];portConstraint=eastwest;" parent="tgF3T0BNK082DmQzEgRz-30" vertex="1">
                    <mxGeometry y="150" width="200" height="30" as="geometry"/>
                </mxCell>
                <mxCell id="tgF3T0BNK082DmQzEgRz-122" value="" style="shape=partialRectangle;connectable=0;fillColor=none;top=0;left=0;bottom=0;right=0;editable=1;overflow=hidden;" parent="tgF3T0BNK082DmQzEgRz-121" vertex="1">
                    <mxGeometry width="30" height="30" as="geometry"/>
                </mxCell>
                <mxCell id="tgF3T0BNK082DmQzEgRz-123" value="deleted_date" style="shape=partialRectangle;connectable=0;fillColor=none;top=0;left=0;bottom=0;right=0;align=left;spacingLeft=6;overflow=hidden;" parent="tgF3T0BNK082DmQzEgRz-121" vertex="1">
                    <mxGeometry x="30" width="170" height="30" as="geometry"/>
                </mxCell>
                <mxCell id="tgF3T0BNK082DmQzEgRz-43" value="payment_method" style="shape=table;startSize=30;container=1;collapsible=1;childLayout=tableLayout;fixedRows=1;rowLines=0;fontStyle=1;align=center;resizeLast=1;" parent="1" vertex="1">
                    <mxGeometry x="-21.000000000000014" y="-2753.06" width="180" height="100" as="geometry"/>
                </mxCell>
                <mxCell id="tgF3T0BNK082DmQzEgRz-44" value="" style="shape=partialRectangle;collapsible=0;dropTarget=0;pointerEvents=0;fillColor=none;top=0;left=0;bottom=1;right=0;points=[[0,0.5],[1,0.5]];portConstraint=eastwest;" parent="tgF3T0BNK082DmQzEgRz-43" vertex="1">
                    <mxGeometry y="30" width="180" height="30" as="geometry"/>
                </mxCell>
                <mxCell id="tgF3T0BNK082DmQzEgRz-45" value="PK" style="shape=partialRectangle;connectable=0;fillColor=none;top=0;left=0;bottom=0;right=0;fontStyle=1;overflow=hidden;" parent="tgF3T0BNK082DmQzEgRz-44" vertex="1">
                    <mxGeometry width="30" height="30" as="geometry"/>
                </mxCell>
                <mxCell id="tgF3T0BNK082DmQzEgRz-46" value="id" style="shape=partialRectangle;connectable=0;fillColor=none;top=0;left=0;bottom=0;right=0;align=left;spacingLeft=6;fontStyle=5;overflow=hidden;" parent="tgF3T0BNK082DmQzEgRz-44" vertex="1">
                    <mxGeometry x="30" width="150" height="30" as="geometry"/>
                </mxCell>
                <mxCell id="tgF3T0BNK082DmQzEgRz-47" value="" style="shape=partialRectangle;collapsible=0;dropTarget=0;pointerEvents=0;fillColor=none;top=0;left=0;bottom=0;right=0;points=[[0,0.5],[1,0.5]];portConstraint=eastwest;" parent="tgF3T0BNK082DmQzEgRz-43" vertex="1">
                    <mxGeometry y="60" width="180" height="30" as="geometry"/>
                </mxCell>
                <mxCell id="tgF3T0BNK082DmQzEgRz-48" value="" style="shape=partialRectangle;connectable=0;fillColor=none;top=0;left=0;bottom=0;right=0;editable=1;overflow=hidden;" parent="tgF3T0BNK082DmQzEgRz-47" vertex="1">
                    <mxGeometry width="30" height="30" as="geometry"/>
                </mxCell>
                <mxCell id="tgF3T0BNK082DmQzEgRz-49" value="name" style="shape=partialRectangle;connectable=0;fillColor=none;top=0;left=0;bottom=0;right=0;align=left;spacingLeft=6;overflow=hidden;" parent="tgF3T0BNK082DmQzEgRz-47" vertex="1">
                    <mxGeometry x="30" width="150" height="30" as="geometry"/>
                </mxCell>
                <mxCell id="tgF3T0BNK082DmQzEgRz-56" value="sales_items" style="shape=table;startSize=30;container=1;collapsible=1;childLayout=tableLayout;fixedRows=1;rowLines=0;fontStyle=1;align=center;resizeLast=1;" parent="1" vertex="1">
                    <mxGeometry x="-21.000000000000014" y="-3109.06" width="180" height="130" as="geometry"/>
                </mxCell>
                <mxCell id="tgF3T0BNK082DmQzEgRz-57" value="" style="shape=partialRectangle;collapsible=0;dropTarget=0;pointerEvents=0;fillColor=none;top=0;left=0;bottom=1;right=0;points=[[0,0.5],[1,0.5]];portConstraint=eastwest;" parent="tgF3T0BNK082DmQzEgRz-56" vertex="1">
                    <mxGeometry y="30" width="180" height="30" as="geometry"/>
                </mxCell>
                <mxCell id="tgF3T0BNK082DmQzEgRz-58" value="PK" style="shape=partialRectangle;connectable=0;fillColor=none;top=0;left=0;bottom=0;right=0;fontStyle=1;overflow=hidden;" parent="tgF3T0BNK082DmQzEgRz-57" vertex="1">
                    <mxGeometry width="30" height="30" as="geometry"/>
                </mxCell>
                <mxCell id="tgF3T0BNK082DmQzEgRz-59" value="id" style="shape=partialRectangle;connectable=0;fillColor=none;top=0;left=0;bottom=0;right=0;align=left;spacingLeft=6;fontStyle=5;overflow=hidden;" parent="tgF3T0BNK082DmQzEgRz-57" vertex="1">
                    <mxGeometry x="30" width="150" height="30" as="geometry"/>
                </mxCell>
                <mxCell id="tgF3T0BNK082DmQzEgRz-60" value="" style="shape=partialRectangle;collapsible=0;dropTarget=0;pointerEvents=0;fillColor=none;top=0;left=0;bottom=0;right=0;points=[[0,0.5],[1,0.5]];portConstraint=eastwest;" parent="tgF3T0BNK082DmQzEgRz-56" vertex="1">
                    <mxGeometry y="60" width="180" height="30" as="geometry"/>
                </mxCell>
                <mxCell id="tgF3T0BNK082DmQzEgRz-61" value="FK" style="shape=partialRectangle;connectable=0;fillColor=none;top=0;left=0;bottom=0;right=0;editable=1;overflow=hidden;fontStyle=1" parent="tgF3T0BNK082DmQzEgRz-60" vertex="1">
                    <mxGeometry width="30" height="30" as="geometry"/>
                </mxCell>
                <mxCell id="tgF3T0BNK082DmQzEgRz-62" value="sale_id" style="shape=partialRectangle;connectable=0;fillColor=none;top=0;left=0;bottom=0;right=0;align=left;spacingLeft=6;overflow=hidden;" parent="tgF3T0BNK082DmQzEgRz-60" vertex="1">
                    <mxGeometry x="30" width="150" height="30" as="geometry"/>
                </mxCell>
                <mxCell id="tgF3T0BNK082DmQzEgRz-137" value="" style="shape=partialRectangle;collapsible=0;dropTarget=0;pointerEvents=0;fillColor=none;top=0;left=0;bottom=0;right=0;points=[[0,0.5],[1,0.5]];portConstraint=eastwest;" parent="tgF3T0BNK082DmQzEgRz-56" vertex="1">
                    <mxGeometry y="90" width="180" height="30" as="geometry"/>
                </mxCell>
                <mxCell id="tgF3T0BNK082DmQzEgRz-138" value="PK" style="shape=partialRectangle;connectable=0;fillColor=none;top=0;left=0;bottom=0;right=0;editable=1;overflow=hidden;fontStyle=1" parent="tgF3T0BNK082DmQzEgRz-137" vertex="1">
                    <mxGeometry width="30" height="30" as="geometry"/>
                </mxCell>
                <mxCell id="tgF3T0BNK082DmQzEgRz-139" value="product_id" style="shape=partialRectangle;connectable=0;fillColor=none;top=0;left=0;bottom=0;right=0;align=left;spacingLeft=6;overflow=hidden;" parent="tgF3T0BNK082DmQzEgRz-137" vertex="1">
                    <mxGeometry x="30" width="150" height="30" as="geometry"/>
                </mxCell>
                <mxCell id="tgF3T0BNK082DmQzEgRz-69" value="users" style="shape=table;startSize=30;container=1;collapsible=1;childLayout=tableLayout;fixedRows=1;rowLines=0;fontStyle=1;align=center;resizeLast=1;" parent="1" vertex="1">
                    <mxGeometry x="-285.61" y="-2852.93" width="180" height="160" as="geometry"/>
                </mxCell>
                <mxCell id="tgF3T0BNK082DmQzEgRz-70" value="" style="shape=partialRectangle;collapsible=0;dropTarget=0;pointerEvents=0;fillColor=none;top=0;left=0;bottom=1;right=0;points=[[0,0.5],[1,0.5]];portConstraint=eastwest;" parent="tgF3T0BNK082DmQzEgRz-69" vertex="1">
                    <mxGeometry y="30" width="180" height="30" as="geometry"/>
                </mxCell>
                <mxCell id="tgF3T0BNK082DmQzEgRz-71" value="PK" style="shape=partialRectangle;connectable=0;fillColor=none;top=0;left=0;bottom=0;right=0;fontStyle=1;overflow=hidden;" parent="tgF3T0BNK082DmQzEgRz-70" vertex="1">
                    <mxGeometry width="30" height="30" as="geometry"/>
                </mxCell>
                <mxCell id="tgF3T0BNK082DmQzEgRz-72" value="id" style="shape=partialRectangle;connectable=0;fillColor=none;top=0;left=0;bottom=0;right=0;align=left;spacingLeft=6;fontStyle=5;overflow=hidden;" parent="tgF3T0BNK082DmQzEgRz-70" vertex="1">
                    <mxGeometry x="30" width="150" height="30" as="geometry"/>
                </mxCell>
                <mxCell id="5" value="" style="shape=partialRectangle;collapsible=0;dropTarget=0;pointerEvents=0;fillColor=none;top=0;left=0;bottom=0;right=0;points=[[0,0.5],[1,0.5]];portConstraint=eastwest;" parent="tgF3T0BNK082DmQzEgRz-69" vertex="1">
                    <mxGeometry y="60" width="180" height="30" as="geometry"/>
                </mxCell>
                <mxCell id="6" value="" style="shape=partialRectangle;connectable=0;fillColor=none;top=0;left=0;bottom=0;right=0;editable=1;overflow=hidden;" parent="5" vertex="1">
                    <mxGeometry width="30" height="30" as="geometry"/>
                </mxCell>
                <mxCell id="7" value="name" style="shape=partialRectangle;connectable=0;fillColor=none;top=0;left=0;bottom=0;right=0;align=left;spacingLeft=6;overflow=hidden;" parent="5" vertex="1">
                    <mxGeometry x="30" width="150" height="30" as="geometry"/>
                </mxCell>
                <mxCell id="tgF3T0BNK082DmQzEgRz-79" value="" style="shape=partialRectangle;collapsible=0;dropTarget=0;pointerEvents=0;fillColor=none;top=0;left=0;bottom=0;right=0;points=[[0,0.5],[1,0.5]];portConstraint=eastwest;" parent="tgF3T0BNK082DmQzEgRz-69" vertex="1">
                    <mxGeometry y="90" width="180" height="30" as="geometry"/>
                </mxCell>
                <mxCell id="tgF3T0BNK082DmQzEgRz-80" value="" style="shape=partialRectangle;connectable=0;fillColor=none;top=0;left=0;bottom=0;right=0;editable=1;overflow=hidden;" parent="tgF3T0BNK082DmQzEgRz-79" vertex="1">
                    <mxGeometry width="30" height="30" as="geometry"/>
                </mxCell>
                <mxCell id="tgF3T0BNK082DmQzEgRz-81" value="admin" style="shape=partialRectangle;connectable=0;fillColor=none;top=0;left=0;bottom=0;right=0;align=left;spacingLeft=6;overflow=hidden;" parent="tgF3T0BNK082DmQzEgRz-79" vertex="1">
                    <mxGeometry x="30" width="150" height="30" as="geometry"/>
                </mxCell>
                <mxCell id="tgF3T0BNK082DmQzEgRz-85" value="" style="shape=partialRectangle;collapsible=0;dropTarget=0;pointerEvents=0;fillColor=none;top=0;left=0;bottom=0;right=0;points=[[0,0.5],[1,0.5]];portConstraint=eastwest;" parent="tgF3T0BNK082DmQzEgRz-69" vertex="1">
                    <mxGeometry y="120" width="180" height="30" as="geometry"/>
                </mxCell>
                <mxCell id="tgF3T0BNK082DmQzEgRz-86" value="" style="shape=partialRectangle;connectable=0;fillColor=none;top=0;left=0;bottom=0;right=0;editable=1;overflow=hidden;" parent="tgF3T0BNK082DmQzEgRz-85" vertex="1">
                    <mxGeometry width="30" height="30" as="geometry"/>
                </mxCell>
                <mxCell id="tgF3T0BNK082DmQzEgRz-87" value="password" style="shape=partialRectangle;connectable=0;fillColor=none;top=0;left=0;bottom=0;right=0;align=left;spacingLeft=6;overflow=hidden;" parent="tgF3T0BNK082DmQzEgRz-85" vertex="1">
                    <mxGeometry x="30" width="150" height="30" as="geometry"/>
                </mxCell>
                <mxCell id="tgF3T0BNK082DmQzEgRz-124" value="products" style="shape=table;startSize=30;container=1;collapsible=1;childLayout=tableLayout;fixedRows=1;rowLines=0;fontStyle=1;align=center;resizeLast=1;" parent="1" vertex="1">
                    <mxGeometry x="-295.61" y="-3062.93" width="200" height="190" as="geometry"/>
                </mxCell>
                <mxCell id="tgF3T0BNK082DmQzEgRz-125" value="" style="shape=partialRectangle;collapsible=0;dropTarget=0;pointerEvents=0;fillColor=none;top=0;left=0;bottom=1;right=0;points=[[0,0.5],[1,0.5]];portConstraint=eastwest;" parent="tgF3T0BNK082DmQzEgRz-124" vertex="1">
                    <mxGeometry y="30" width="200" height="30" as="geometry"/>
                </mxCell>
                <mxCell id="tgF3T0BNK082DmQzEgRz-126" value="PK" style="shape=partialRectangle;connectable=0;fillColor=none;top=0;left=0;bottom=0;right=0;fontStyle=1;overflow=hidden;" parent="tgF3T0BNK082DmQzEgRz-125" vertex="1">
                    <mxGeometry width="30" height="30" as="geometry"/>
                </mxCell>
                <mxCell id="tgF3T0BNK082DmQzEgRz-127" value="id" style="shape=partialRectangle;connectable=0;fillColor=none;top=0;left=0;bottom=0;right=0;align=left;spacingLeft=6;fontStyle=5;overflow=hidden;" parent="tgF3T0BNK082DmQzEgRz-125" vertex="1">
                    <mxGeometry x="30" width="170" height="30" as="geometry"/>
                </mxCell>
                <mxCell id="tgF3T0BNK082DmQzEgRz-140" value="" style="shape=partialRectangle;collapsible=0;dropTarget=0;pointerEvents=0;fillColor=none;top=0;left=0;bottom=0;right=0;points=[[0,0.5],[1,0.5]];portConstraint=eastwest;" parent="tgF3T0BNK082DmQzEgRz-124" vertex="1">
                    <mxGeometry y="60" width="200" height="30" as="geometry"/>
                </mxCell>
                <mxCell id="tgF3T0BNK082DmQzEgRz-141" value="" style="shape=partialRectangle;connectable=0;fillColor=none;top=0;left=0;bottom=0;right=0;editable=1;overflow=hidden;" parent="tgF3T0BNK082DmQzEgRz-140" vertex="1">
                    <mxGeometry width="30" height="30" as="geometry"/>
                </mxCell>
                <mxCell id="tgF3T0BNK082DmQzEgRz-142" value="name" style="shape=partialRectangle;connectable=0;fillColor=none;top=0;left=0;bottom=0;right=0;align=left;spacingLeft=6;overflow=hidden;" parent="tgF3T0BNK082DmQzEgRz-140" vertex="1">
                    <mxGeometry x="30" width="170" height="30" as="geometry"/>
                </mxCell>
                <mxCell id="tgF3T0BNK082DmQzEgRz-146" value="" style="shape=partialRectangle;collapsible=0;dropTarget=0;pointerEvents=0;fillColor=none;top=0;left=0;bottom=0;right=0;points=[[0,0.5],[1,0.5]];portConstraint=eastwest;" parent="tgF3T0BNK082DmQzEgRz-124" vertex="1">
                    <mxGeometry y="90" width="200" height="30" as="geometry"/>
                </mxCell>
                <mxCell id="tgF3T0BNK082DmQzEgRz-147" value="" style="shape=partialRectangle;connectable=0;fillColor=none;top=0;left=0;bottom=0;right=0;editable=1;overflow=hidden;" parent="tgF3T0BNK082DmQzEgRz-146" vertex="1">
                    <mxGeometry width="30" height="30" as="geometry"/>
                </mxCell>
                <mxCell id="tgF3T0BNK082DmQzEgRz-148" value="buy_price" style="shape=partialRectangle;connectable=0;fillColor=none;top=0;left=0;bottom=0;right=0;align=left;spacingLeft=6;overflow=hidden;" parent="tgF3T0BNK082DmQzEgRz-146" vertex="1">
                    <mxGeometry x="30" width="170" height="30" as="geometry"/>
                </mxCell>
                <mxCell id="tgF3T0BNK082DmQzEgRz-143" value="" style="shape=partialRectangle;collapsible=0;dropTarget=0;pointerEvents=0;fillColor=none;top=0;left=0;bottom=0;right=0;points=[[0,0.5],[1,0.5]];portConstraint=eastwest;" parent="tgF3T0BNK082DmQzEgRz-124" vertex="1">
                    <mxGeometry y="120" width="200" height="30" as="geometry"/>
                </mxCell>
                <mxCell id="tgF3T0BNK082DmQzEgRz-144" value="" style="shape=partialRectangle;connectable=0;fillColor=none;top=0;left=0;bottom=0;right=0;editable=1;overflow=hidden;" parent="tgF3T0BNK082DmQzEgRz-143" vertex="1">
                    <mxGeometry width="30" height="30" as="geometry"/>
                </mxCell>
                <mxCell id="tgF3T0BNK082DmQzEgRz-145" value="sell_price" style="shape=partialRectangle;connectable=0;fillColor=none;top=0;left=0;bottom=0;right=0;align=left;spacingLeft=6;overflow=hidden;" parent="tgF3T0BNK082DmQzEgRz-143" vertex="1">
                    <mxGeometry x="30" width="170" height="30" as="geometry"/>
                </mxCell>
                <mxCell id="tgF3T0BNK082DmQzEgRz-160" value="" style="shape=partialRectangle;collapsible=0;dropTarget=0;pointerEvents=0;fillColor=none;top=0;left=0;bottom=0;right=0;points=[[0,0.5],[1,0.5]];portConstraint=eastwest;" parent="tgF3T0BNK082DmQzEgRz-124" vertex="1">
                    <mxGeometry y="150" width="200" height="30" as="geometry"/>
                </mxCell>
                <mxCell id="tgF3T0BNK082DmQzEgRz-161" value="" style="shape=partialRectangle;connectable=0;fillColor=none;top=0;left=0;bottom=0;right=0;editable=1;overflow=hidden;" parent="tgF3T0BNK082DmQzEgRz-160" vertex="1">
                    <mxGeometry width="30" height="30" as="geometry"/>
                </mxCell>
                <mxCell id="tgF3T0BNK082DmQzEgRz-162" value="quatity (UPDATE TRIGGER)" style="shape=partialRectangle;connectable=0;fillColor=none;top=0;left=0;bottom=0;right=0;align=left;spacingLeft=6;overflow=hidden;" parent="tgF3T0BNK082DmQzEgRz-160" vertex="1">
                    <mxGeometry x="30" width="170" height="30" as="geometry"/>
                </mxCell>
                <mxCell id="tgF3T0BNK082DmQzEgRz-155" style="edgeStyle=orthogonalEdgeStyle;rounded=0;orthogonalLoop=1;jettySize=auto;html=1;exitX=1;exitY=0.5;exitDx=0;exitDy=0;endArrow=none;endFill=0;startArrow=ERmany;startFill=0;" parent="1" source="tgF3T0BNK082DmQzEgRz-60" target="tgF3T0BNK082DmQzEgRz-31" edge="1">
                    <mxGeometry relative="1" as="geometry"/>
                </mxCell>
                <mxCell id="tgF3T0BNK082DmQzEgRz-156" style="edgeStyle=orthogonalEdgeStyle;rounded=0;orthogonalLoop=1;jettySize=auto;html=1;exitX=1;exitY=0.5;exitDx=0;exitDy=0;entryX=1;entryY=0.5;entryDx=0;entryDy=0;startArrow=ERzeroToMany;startFill=1;endArrow=none;endFill=0;" parent="1" source="tgF3T0BNK082DmQzEgRz-40" target="tgF3T0BNK082DmQzEgRz-44" edge="1">
                    <mxGeometry relative="1" as="geometry"/>
                </mxCell>
                <mxCell id="tgF3T0BNK082DmQzEgRz-157" style="edgeStyle=orthogonalEdgeStyle;rounded=0;orthogonalLoop=1;jettySize=auto;html=1;exitX=0;exitY=0.5;exitDx=0;exitDy=0;entryX=1.002;entryY=0.701;entryDx=0;entryDy=0;endArrow=none;endFill=0;startArrow=ERzeroToMany;startFill=1;entryPerimeter=0;" parent="1" source="tgF3T0BNK082DmQzEgRz-137" target="tgF3T0BNK082DmQzEgRz-125" edge="1">
                    <mxGeometry relative="1" as="geometry"/>
                </mxCell>
                <mxCell id="tgF3T0BNK082DmQzEgRz-159" style="edgeStyle=orthogonalEdgeStyle;rounded=0;orthogonalLoop=1;jettySize=auto;html=1;exitX=1;exitY=0.5;exitDx=0;exitDy=0;startArrow=none;startFill=0;endArrow=ERmany;endFill=0;" parent="1" source="2" target="tgF3T0BNK082DmQzEgRz-125" edge="1">
                    <mxGeometry relative="1" as="geometry">
                        <mxPoint x="-393.8499999999999" y="-3017.93" as="sourcePoint"/>
                    </mxGeometry>
                </mxCell>
                <mxCell id="urUbboM_1R0ok-0YM-QM-4" value="" style="rounded=0;whiteSpace=wrap;html=1;align=left;" parent="1" vertex="1">
                    <mxGeometry x="475" y="-2780" width="620" height="30" as="geometry"/>
                </mxCell>
                <mxCell id="urUbboM_1R0ok-0YM-QM-9" value="" style="rounded=0;whiteSpace=wrap;html=1;" parent="1" vertex="1">
                    <mxGeometry x="475" y="-2750" width="110" height="390" as="geometry"/>
                </mxCell>
                <mxCell id="urUbboM_1R0ok-0YM-QM-10" value="SEP" style="text;html=1;strokeColor=none;fillColor=none;align=center;verticalAlign=middle;whiteSpace=wrap;rounded=0;" parent="1" vertex="1">
                    <mxGeometry x="510" y="-2775" width="40" height="20" as="geometry"/>
                </mxCell>
                <mxCell id="urUbboM_1R0ok-0YM-QM-11" value="" style="shape=image;html=1;verticalAlign=top;verticalLabelPosition=bottom;labelBackgroundColor=#ffffff;imageAspect=0;aspect=fixed;image=https://cdn4.iconfinder.com/data/icons/multimedia-75/512/multimedia-24-128.png" parent="1" vertex="1">
                    <mxGeometry x="485" y="-2775" width="20" height="20" as="geometry"/>
                </mxCell>
                <mxCell id="urUbboM_1R0ok-0YM-QM-12" value="&lt;div align=&quot;left&quot;&gt;&amp;nbsp; Stock&lt;/div&gt;" style="rounded=0;whiteSpace=wrap;html=1;align=left;fillColor=#ffe6cc;strokeColor=#d79b00;" parent="1" vertex="1">
                    <mxGeometry x="475" y="-2750" width="110" height="30" as="geometry"/>
                </mxCell>
                <mxCell id="urUbboM_1R0ok-0YM-QM-13" value="&lt;div align=&quot;left&quot;&gt;&amp;nbsp; Entrées&lt;br&gt;&lt;/div&gt;" style="rounded=0;whiteSpace=wrap;html=1;align=left;" parent="1" vertex="1">
                    <mxGeometry x="475" y="-2690" width="110" height="30" as="geometry"/>
                </mxCell>
                <mxCell id="urUbboM_1R0ok-0YM-QM-14" value="&lt;div align=&quot;left&quot;&gt;&amp;nbsp; Ventes&lt;/div&gt;" style="rounded=0;whiteSpace=wrap;html=1;align=left;" parent="1" vertex="1">
                    <mxGeometry x="475" y="-2720" width="110" height="30" as="geometry"/>
                </mxCell>
                <mxCell id="urUbboM_1R0ok-0YM-QM-15" value="Username" style="text;html=1;strokeColor=none;fillColor=none;align=center;verticalAlign=middle;whiteSpace=wrap;rounded=0;" parent="1" vertex="1">
                    <mxGeometry x="980" y="-2775" width="75" height="20" as="geometry"/>
                </mxCell>
                <mxCell id="urUbboM_1R0ok-0YM-QM-16" value="" style="shape=image;html=1;verticalAlign=top;verticalLabelPosition=bottom;labelBackgroundColor=#ffffff;imageAspect=0;aspect=fixed;image=https://cdn3.iconfinder.com/data/icons/user-interface-169/32/logout-128.png" parent="1" vertex="1">
                    <mxGeometry x="1065" y="-2775" width="20" height="20" as="geometry"/>
                </mxCell>
                <mxCell id="urUbboM_1R0ok-0YM-QM-17" value="" style="rounded=0;whiteSpace=wrap;html=1;" parent="1" vertex="1">
                    <mxGeometry x="475" y="-3230" width="620" height="420" as="geometry"/>
                </mxCell>
                <mxCell id="urUbboM_1R0ok-0YM-QM-27" value="email" style="rounded=0;whiteSpace=wrap;html=1;align=left;" parent="1" vertex="1">
                    <mxGeometry x="725" y="-2987" width="120" height="20" as="geometry"/>
                </mxCell>
                <mxCell id="urUbboM_1R0ok-0YM-QM-28" value="password" style="rounded=0;whiteSpace=wrap;html=1;align=left;" parent="1" vertex="1">
                    <mxGeometry x="725" y="-2957" width="120" height="20" as="geometry"/>
                </mxCell>
                <mxCell id="urUbboM_1R0ok-0YM-QM-29" value="&lt;div align=&quot;center&quot;&gt;Se connecter&lt;/div&gt;" style="rounded=1;whiteSpace=wrap;html=1;align=center;fillColor=#ffe6cc;strokeColor=#d79b00;" parent="1" vertex="1">
                    <mxGeometry x="725" y="-2927" width="120" height="20" as="geometry"/>
                </mxCell>
                <mxCell id="urUbboM_1R0ok-0YM-QM-30" value="&lt;b&gt;&lt;font style=&quot;font-size: 14px&quot;&gt;SEP&lt;/font&gt;&lt;/b&gt;" style="text;html=1;strokeColor=none;fillColor=none;align=center;verticalAlign=middle;whiteSpace=wrap;rounded=0;" parent="1" vertex="1">
                    <mxGeometry x="765" y="-3147" width="40" height="20" as="geometry"/>
                </mxCell>
                <mxCell id="urUbboM_1R0ok-0YM-QM-31" value="" style="shape=image;verticalLabelPosition=bottom;labelBackgroundColor=#ffffff;verticalAlign=top;aspect=fixed;imageAspect=0;image=https://besolvay.be/wp-content/uploads/2020/10/logoHeader.png;" parent="1" vertex="1">
                    <mxGeometry x="725" y="-3117" width="120" height="120" as="geometry"/>
                </mxCell>
                <mxCell id="urUbboM_1R0ok-0YM-QM-34" value="" style="rounded=0;whiteSpace=wrap;html=1;align=left;" parent="1" vertex="1">
                    <mxGeometry x="1130" y="-2780" width="620" height="30" as="geometry"/>
                </mxCell>
                <mxCell id="urUbboM_1R0ok-0YM-QM-35" value="" style="rounded=0;whiteSpace=wrap;html=1;" parent="1" vertex="1">
                    <mxGeometry x="1130" y="-2750" width="110" height="390" as="geometry"/>
                </mxCell>
                <mxCell id="urUbboM_1R0ok-0YM-QM-36" value="SEP" style="text;html=1;strokeColor=none;fillColor=none;align=center;verticalAlign=middle;whiteSpace=wrap;rounded=0;" parent="1" vertex="1">
                    <mxGeometry x="1165" y="-2775" width="40" height="20" as="geometry"/>
                </mxCell>
                <mxCell id="urUbboM_1R0ok-0YM-QM-37" value="" style="shape=image;html=1;verticalAlign=top;verticalLabelPosition=bottom;labelBackgroundColor=#ffffff;imageAspect=0;aspect=fixed;image=https://cdn4.iconfinder.com/data/icons/multimedia-75/512/multimedia-24-128.png" parent="1" vertex="1">
                    <mxGeometry x="1140" y="-2775" width="20" height="20" as="geometry"/>
                </mxCell>
                <mxCell id="urUbboM_1R0ok-0YM-QM-38" value="&lt;div align=&quot;left&quot;&gt;&amp;nbsp; Stock&lt;/div&gt;" style="rounded=0;whiteSpace=wrap;html=1;align=left;" parent="1" vertex="1">
                    <mxGeometry x="1130" y="-2750" width="110" height="30" as="geometry"/>
                </mxCell>
                <mxCell id="urUbboM_1R0ok-0YM-QM-39" value="&lt;div align=&quot;left&quot;&gt;&amp;nbsp; Entrées&lt;br&gt;&lt;/div&gt;" style="rounded=0;whiteSpace=wrap;html=1;align=left;" parent="1" vertex="1">
                    <mxGeometry x="1130" y="-2690" width="110" height="30" as="geometry"/>
                </mxCell>
                <mxCell id="urUbboM_1R0ok-0YM-QM-40" value="&lt;div align=&quot;left&quot;&gt;&amp;nbsp; Ventes&lt;/div&gt;" style="rounded=0;whiteSpace=wrap;html=1;align=left;fillColor=#ffe6cc;strokeColor=#d79b00;" parent="1" vertex="1">
                    <mxGeometry x="1130" y="-2720" width="110" height="30" as="geometry"/>
                </mxCell>
                <mxCell id="urUbboM_1R0ok-0YM-QM-41" value="Username" style="text;html=1;strokeColor=none;fillColor=none;align=center;verticalAlign=middle;whiteSpace=wrap;rounded=0;" parent="1" vertex="1">
                    <mxGeometry x="1650" y="-2775" width="60" height="20" as="geometry"/>
                </mxCell>
                <mxCell id="urUbboM_1R0ok-0YM-QM-42" value="" style="shape=image;html=1;verticalAlign=top;verticalLabelPosition=bottom;labelBackgroundColor=#ffffff;imageAspect=0;aspect=fixed;image=https://cdn3.iconfinder.com/data/icons/user-interface-169/32/logout-128.png" parent="1" vertex="1">
                    <mxGeometry x="1720" y="-2775" width="20" height="20" as="geometry"/>
                </mxCell>
                <mxCell id="urUbboM_1R0ok-0YM-QM-44" value="" style="rounded=0;whiteSpace=wrap;html=1;align=left;" parent="1" vertex="1">
                    <mxGeometry x="1790" y="-2780" width="620" height="30" as="geometry"/>
                </mxCell>
                <mxCell id="urUbboM_1R0ok-0YM-QM-45" value="" style="rounded=0;whiteSpace=wrap;html=1;" parent="1" vertex="1">
                    <mxGeometry x="1790" y="-2750" width="110" height="390" as="geometry"/>
                </mxCell>
                <mxCell id="urUbboM_1R0ok-0YM-QM-46" value="SEP" style="text;html=1;strokeColor=none;fillColor=none;align=center;verticalAlign=middle;whiteSpace=wrap;rounded=0;" parent="1" vertex="1">
                    <mxGeometry x="1825" y="-2775" width="40" height="20" as="geometry"/>
                </mxCell>
                <mxCell id="urUbboM_1R0ok-0YM-QM-47" value="" style="shape=image;html=1;verticalAlign=top;verticalLabelPosition=bottom;labelBackgroundColor=#ffffff;imageAspect=0;aspect=fixed;image=https://cdn4.iconfinder.com/data/icons/multimedia-75/512/multimedia-24-128.png" parent="1" vertex="1">
                    <mxGeometry x="1800" y="-2775" width="20" height="20" as="geometry"/>
                </mxCell>
                <mxCell id="urUbboM_1R0ok-0YM-QM-48" value="&lt;div align=&quot;left&quot;&gt;&amp;nbsp; Stock&lt;/div&gt;" style="rounded=0;whiteSpace=wrap;html=1;align=left;" parent="1" vertex="1">
                    <mxGeometry x="1790" y="-2750" width="110" height="30" as="geometry"/>
                </mxCell>
                <mxCell id="urUbboM_1R0ok-0YM-QM-49" value="&lt;div align=&quot;left&quot;&gt;&amp;nbsp; Entrées&lt;br&gt;&lt;/div&gt;" style="rounded=0;whiteSpace=wrap;html=1;align=left;fillColor=#ffe6cc;strokeColor=#d79b00;" parent="1" vertex="1">
                    <mxGeometry x="1790" y="-2690" width="110" height="30" as="geometry"/>
                </mxCell>
                <mxCell id="urUbboM_1R0ok-0YM-QM-50" value="&lt;div align=&quot;left&quot;&gt;&amp;nbsp; Ventes&lt;/div&gt;" style="rounded=0;whiteSpace=wrap;html=1;align=left;" parent="1" vertex="1">
                    <mxGeometry x="1790" y="-2720" width="110" height="30" as="geometry"/>
                </mxCell>
                <mxCell id="urUbboM_1R0ok-0YM-QM-51" value="Username" style="text;html=1;strokeColor=none;fillColor=none;align=center;verticalAlign=middle;whiteSpace=wrap;rounded=0;" parent="1" vertex="1">
                    <mxGeometry x="2300" y="-2775" width="70" height="20" as="geometry"/>
                </mxCell>
                <mxCell id="urUbboM_1R0ok-0YM-QM-52" value="" style="shape=image;html=1;verticalAlign=top;verticalLabelPosition=bottom;labelBackgroundColor=#ffffff;imageAspect=0;aspect=fixed;image=https://cdn3.iconfinder.com/data/icons/user-interface-169/32/logout-128.png" parent="1" vertex="1">
                    <mxGeometry x="2380" y="-2775" width="20" height="20" as="geometry"/>
                </mxCell>
                <mxCell id="urUbboM_1R0ok-0YM-QM-54" value="&lt;font size=&quot;1&quot;&gt;&lt;b style=&quot;font-size: 14px&quot;&gt;Stock&lt;/b&gt;&lt;/font&gt;" style="text;html=1;strokeColor=none;fillColor=none;align=left;verticalAlign=middle;whiteSpace=wrap;rounded=0;" parent="1" vertex="1">
                    <mxGeometry x="640" y="-2730" width="80" height="20" as="geometry"/>
                </mxCell>
                <mxCell id="urUbboM_1R0ok-0YM-QM-78" value="" style="rounded=0;whiteSpace=wrap;html=1;" parent="1" vertex="1">
                    <mxGeometry x="1292" y="-2697.13" width="403" height="50" as="geometry"/>
                </mxCell>
                <mxCell id="urUbboM_1R0ok-0YM-QM-79" value="&lt;div&gt;Vente 1&lt;/div&gt;" style="text;html=1;strokeColor=none;fillColor=none;align=left;verticalAlign=middle;whiteSpace=wrap;rounded=0;" parent="1" vertex="1">
                    <mxGeometry x="1304" y="-2690" width="56" height="20" as="geometry"/>
                </mxCell>
                <mxCell id="urUbboM_1R0ok-0YM-QM-81" value="45€" style="text;html=1;strokeColor=none;fillColor=none;align=center;verticalAlign=middle;whiteSpace=wrap;rounded=0;" parent="1" vertex="1">
                    <mxGeometry x="1476.13" y="-2682.13" width="34.75" height="20" as="geometry"/>
                </mxCell>
                <mxCell id="urUbboM_1R0ok-0YM-QM-98" value="&lt;font style=&quot;font-size: 10px&quot;&gt;Trier par&lt;/font&gt;" style="text;html=1;strokeColor=none;fillColor=none;align=center;verticalAlign=middle;whiteSpace=wrap;rounded=0;fontColor=#000000;" parent="1" vertex="1">
                    <mxGeometry x="1625" y="-2729" width="57" height="20" as="geometry"/>
                </mxCell>
                <mxCell id="urUbboM_1R0ok-0YM-QM-99" value="" style="shape=image;html=1;verticalAlign=top;verticalLabelPosition=bottom;labelBackgroundColor=#ffffff;imageAspect=0;aspect=fixed;image=https://cdn3.iconfinder.com/data/icons/user-interface-169/32/chevron-bottom-128.png;align=left;" parent="1" vertex="1">
                    <mxGeometry x="1682" y="-2722" width="10" height="10" as="geometry"/>
                </mxCell>
                <mxCell id="urUbboM_1R0ok-0YM-QM-100" value="&lt;font size=&quot;1&quot;&gt;&lt;b style=&quot;font-size: 14px&quot;&gt;Ventes&lt;/b&gt;&lt;/font&gt;" style="text;html=1;strokeColor=none;fillColor=none;align=left;verticalAlign=middle;whiteSpace=wrap;rounded=0;" parent="1" vertex="1">
                    <mxGeometry x="1295" y="-2730" width="80" height="20" as="geometry"/>
                </mxCell>
                <mxCell id="urUbboM_1R0ok-0YM-QM-102" value="&lt;font size=&quot;1&quot;&gt;&lt;b style=&quot;font-size: 14px&quot;&gt;Entrées&lt;/b&gt;&lt;/font&gt;" style="text;html=1;strokeColor=none;fillColor=none;align=left;verticalAlign=middle;whiteSpace=wrap;rounded=0;" parent="1" vertex="1">
                    <mxGeometry x="1955" y="-2729" width="80" height="20" as="geometry"/>
                </mxCell>
                <mxCell id="urUbboM_1R0ok-0YM-QM-112" value="" style="rounded=1;whiteSpace=wrap;html=1;align=center;fillColor=#dae8fc;strokeColor=#6c8ebf;" parent="1" vertex="1">
                    <mxGeometry x="1626" y="-2687.1299999999997" width="30" height="30" as="geometry"/>
                </mxCell>
                <mxCell id="urUbboM_1R0ok-0YM-QM-113" value="" style="shape=image;html=1;verticalAlign=top;verticalLabelPosition=bottom;labelBackgroundColor=#ffffff;imageAspect=0;aspect=fixed;image=https://cdn1.iconfinder.com/data/icons/feather-2/24/edit-128.png;fillColor=#000000;align=center;" parent="1" vertex="1">
                    <mxGeometry x="1630" y="-2682.7" width="22.77" height="22.77" as="geometry"/>
                </mxCell>
                <mxCell id="urUbboM_1R0ok-0YM-QM-116" value="" style="rounded=1;whiteSpace=wrap;html=1;fillColor=#f8cecc;align=center;strokeColor=#b85450;" parent="1" vertex="1">
                    <mxGeometry x="1660" y="-2687.13" width="30" height="30" as="geometry"/>
                </mxCell>
                <mxCell id="urUbboM_1R0ok-0YM-QM-115" value="" style="shape=image;html=1;verticalAlign=top;verticalLabelPosition=bottom;labelBackgroundColor=#ffffff;imageAspect=0;aspect=fixed;image=https://cdn1.iconfinder.com/data/icons/feather-2/24/trash-2-128.png;fillColor=#000000;align=center;" parent="1" vertex="1">
                    <mxGeometry x="1663.5" y="-2683.63" width="23" height="23" as="geometry"/>
                </mxCell>
                <mxCell id="urUbboM_1R0ok-0YM-QM-117" value="" style="rounded=0;whiteSpace=wrap;html=1;" parent="1" vertex="1">
                    <mxGeometry x="1292.01" y="-2639.0000000000005" width="403" height="50" as="geometry"/>
                </mxCell>
                <mxCell id="urUbboM_1R0ok-0YM-QM-118" value="&lt;div&gt;Vente 2&lt;/div&gt;" style="text;html=1;strokeColor=none;fillColor=none;align=left;verticalAlign=middle;whiteSpace=wrap;rounded=0;" parent="1" vertex="1">
                    <mxGeometry x="1304.02" y="-2632.9300000000003" width="56" height="20" as="geometry"/>
                </mxCell>
                <mxCell id="urUbboM_1R0ok-0YM-QM-119" value="15€" style="text;html=1;strokeColor=none;fillColor=none;align=center;verticalAlign=middle;whiteSpace=wrap;rounded=0;" parent="1" vertex="1">
                    <mxGeometry x="1476.14" y="-2624.0000000000005" width="34.75" height="20" as="geometry"/>
                </mxCell>
                <mxCell id="urUbboM_1R0ok-0YM-QM-120" value="" style="rounded=1;whiteSpace=wrap;html=1;align=center;fillColor=#dae8fc;strokeColor=#6c8ebf;" parent="1" vertex="1">
                    <mxGeometry x="1626.01" y="-2629" width="30" height="30" as="geometry"/>
                </mxCell>
                <mxCell id="urUbboM_1R0ok-0YM-QM-121" value="" style="shape=image;html=1;verticalAlign=top;verticalLabelPosition=bottom;labelBackgroundColor=#ffffff;imageAspect=0;aspect=fixed;image=https://cdn1.iconfinder.com/data/icons/feather-2/24/edit-128.png;fillColor=#000000;align=center;" parent="1" vertex="1">
                    <mxGeometry x="1630.01" y="-2624.57" width="22.77" height="22.77" as="geometry"/>
                </mxCell>
                <mxCell id="urUbboM_1R0ok-0YM-QM-122" value="" style="rounded=1;whiteSpace=wrap;html=1;fillColor=#f8cecc;align=center;strokeColor=#b85450;" parent="1" vertex="1">
                    <mxGeometry x="1660.01" y="-2629.0000000000005" width="30" height="30" as="geometry"/>
                </mxCell>
                <mxCell id="urUbboM_1R0ok-0YM-QM-123" value="" style="shape=image;html=1;verticalAlign=top;verticalLabelPosition=bottom;labelBackgroundColor=#ffffff;imageAspect=0;aspect=fixed;image=https://cdn1.iconfinder.com/data/icons/feather-2/24/trash-2-128.png;fillColor=#000000;align=center;" parent="1" vertex="1">
                    <mxGeometry x="1663.51" y="-2625.5000000000005" width="23" height="23" as="geometry"/>
                </mxCell>
                <mxCell id="urUbboM_1R0ok-0YM-QM-124" value="" style="rounded=0;whiteSpace=wrap;html=1;" parent="1" vertex="1">
                    <mxGeometry x="1292" y="-2580.0000000000005" width="403" height="50" as="geometry"/>
                </mxCell>
                <mxCell id="urUbboM_1R0ok-0YM-QM-125" value="&lt;div&gt;Vente 3&lt;br&gt;&lt;/div&gt;" style="text;html=1;strokeColor=none;fillColor=none;align=left;verticalAlign=middle;whiteSpace=wrap;rounded=0;" parent="1" vertex="1">
                    <mxGeometry x="1304" y="-2572.9300000000003" width="56" height="20" as="geometry"/>
                </mxCell>
                <mxCell id="urUbboM_1R0ok-0YM-QM-126" value="27€" style="text;html=1;strokeColor=none;fillColor=none;align=center;verticalAlign=middle;whiteSpace=wrap;rounded=0;" parent="1" vertex="1">
                    <mxGeometry x="1476.13" y="-2565.0000000000005" width="34.75" height="20" as="geometry"/>
                </mxCell>
                <mxCell id="urUbboM_1R0ok-0YM-QM-127" value="" style="rounded=1;whiteSpace=wrap;html=1;align=center;fillColor=#dae8fc;strokeColor=#6c8ebf;" parent="1" vertex="1">
                    <mxGeometry x="1626" y="-2570" width="30" height="30" as="geometry"/>
                </mxCell>
                <mxCell id="urUbboM_1R0ok-0YM-QM-128" value="" style="shape=image;html=1;verticalAlign=top;verticalLabelPosition=bottom;labelBackgroundColor=#ffffff;imageAspect=0;aspect=fixed;image=https://cdn1.iconfinder.com/data/icons/feather-2/24/edit-128.png;fillColor=#000000;align=center;" parent="1" vertex="1">
                    <mxGeometry x="1630" y="-2565.57" width="22.77" height="22.77" as="geometry"/>
                </mxCell>
                <mxCell id="urUbboM_1R0ok-0YM-QM-129" value="" style="rounded=1;whiteSpace=wrap;html=1;fillColor=#f8cecc;align=center;strokeColor=#b85450;" parent="1" vertex="1">
                    <mxGeometry x="1660" y="-2570.0000000000005" width="30" height="30" as="geometry"/>
                </mxCell>
                <mxCell id="urUbboM_1R0ok-0YM-QM-130" value="" style="shape=image;html=1;verticalAlign=top;verticalLabelPosition=bottom;labelBackgroundColor=#ffffff;imageAspect=0;aspect=fixed;image=https://cdn1.iconfinder.com/data/icons/feather-2/24/trash-2-128.png;fillColor=#000000;align=center;" parent="1" vertex="1">
                    <mxGeometry x="1663.5" y="-2566.5000000000005" width="23" height="23" as="geometry"/>
                </mxCell>
                <mxCell id="urUbboM_1R0ok-0YM-QM-131" value="" style="rounded=0;whiteSpace=wrap;html=1;" parent="1" vertex="1">
                    <mxGeometry x="1292" y="-2519.0000000000005" width="403" height="50" as="geometry"/>
                </mxCell>
                <mxCell id="urUbboM_1R0ok-0YM-QM-132" value="&lt;div&gt;Vente 4&lt;br&gt;&lt;/div&gt;" style="text;html=1;strokeColor=none;fillColor=none;align=left;verticalAlign=middle;whiteSpace=wrap;rounded=0;" parent="1" vertex="1">
                    <mxGeometry x="1304" y="-2512.9300000000003" width="56" height="20" as="geometry"/>
                </mxCell>
                <mxCell id="urUbboM_1R0ok-0YM-QM-133" value="32€" style="text;html=1;strokeColor=none;fillColor=none;align=center;verticalAlign=middle;whiteSpace=wrap;rounded=0;" parent="1" vertex="1">
                    <mxGeometry x="1476.13" y="-2504.0000000000005" width="34.75" height="20" as="geometry"/>
                </mxCell>
                <mxCell id="urUbboM_1R0ok-0YM-QM-134" value="" style="rounded=1;whiteSpace=wrap;html=1;align=center;fillColor=#dae8fc;strokeColor=#6c8ebf;" parent="1" vertex="1">
                    <mxGeometry x="1626" y="-2509" width="30" height="30" as="geometry"/>
                </mxCell>
                <mxCell id="urUbboM_1R0ok-0YM-QM-135" value="" style="shape=image;html=1;verticalAlign=top;verticalLabelPosition=bottom;labelBackgroundColor=#ffffff;imageAspect=0;aspect=fixed;image=https://cdn1.iconfinder.com/data/icons/feather-2/24/edit-128.png;fillColor=#000000;align=center;" parent="1" vertex="1">
                    <mxGeometry x="1630" y="-2504.57" width="22.77" height="22.77" as="geometry"/>
                </mxCell>
                <mxCell id="urUbboM_1R0ok-0YM-QM-136" value="" style="rounded=1;whiteSpace=wrap;html=1;fillColor=#f8cecc;align=center;strokeColor=#b85450;" parent="1" vertex="1">
                    <mxGeometry x="1660" y="-2509.0000000000005" width="30" height="30" as="geometry"/>
                </mxCell>
                <mxCell id="urUbboM_1R0ok-0YM-QM-137" value="" style="shape=image;html=1;verticalAlign=top;verticalLabelPosition=bottom;labelBackgroundColor=#ffffff;imageAspect=0;aspect=fixed;image=https://cdn1.iconfinder.com/data/icons/feather-2/24/trash-2-128.png;fillColor=#000000;align=center;" parent="1" vertex="1">
                    <mxGeometry x="1663.5" y="-2505.5000000000005" width="23" height="23" as="geometry"/>
                </mxCell>
                <mxCell id="urUbboM_1R0ok-0YM-QM-138" value="" style="rounded=0;whiteSpace=wrap;html=1;" parent="1" vertex="1">
                    <mxGeometry x="1292.02" y="-2459.0000000000005" width="403" height="50" as="geometry"/>
                </mxCell>
                <mxCell id="urUbboM_1R0ok-0YM-QM-139" value="&lt;div&gt;Vente 5&lt;br&gt;&lt;/div&gt;" style="text;html=1;strokeColor=none;fillColor=none;align=left;verticalAlign=middle;whiteSpace=wrap;rounded=0;" parent="1" vertex="1">
                    <mxGeometry x="1304.02" y="-2452.9300000000003" width="56" height="20" as="geometry"/>
                </mxCell>
                <mxCell id="urUbboM_1R0ok-0YM-QM-140" value="45€" style="text;html=1;strokeColor=none;fillColor=none;align=center;verticalAlign=middle;whiteSpace=wrap;rounded=0;" parent="1" vertex="1">
                    <mxGeometry x="1476.15" y="-2444.0000000000005" width="34.75" height="20" as="geometry"/>
                </mxCell>
                <mxCell id="urUbboM_1R0ok-0YM-QM-141" value="" style="rounded=1;whiteSpace=wrap;html=1;align=center;fillColor=#dae8fc;strokeColor=#6c8ebf;" parent="1" vertex="1">
                    <mxGeometry x="1626.02" y="-2449" width="30" height="30" as="geometry"/>
                </mxCell>
                <mxCell id="urUbboM_1R0ok-0YM-QM-142" value="" style="shape=image;html=1;verticalAlign=top;verticalLabelPosition=bottom;labelBackgroundColor=#ffffff;imageAspect=0;aspect=fixed;image=https://cdn1.iconfinder.com/data/icons/feather-2/24/edit-128.png;fillColor=#000000;align=center;" parent="1" vertex="1">
                    <mxGeometry x="1630.02" y="-2444.57" width="22.77" height="22.77" as="geometry"/>
                </mxCell>
                <mxCell id="urUbboM_1R0ok-0YM-QM-143" value="" style="rounded=1;whiteSpace=wrap;html=1;fillColor=#f8cecc;align=center;strokeColor=#b85450;" parent="1" vertex="1">
                    <mxGeometry x="1660.02" y="-2449.0000000000005" width="30" height="30" as="geometry"/>
                </mxCell>
                <mxCell id="urUbboM_1R0ok-0YM-QM-144" value="" style="shape=image;html=1;verticalAlign=top;verticalLabelPosition=bottom;labelBackgroundColor=#ffffff;imageAspect=0;aspect=fixed;image=https://cdn1.iconfinder.com/data/icons/feather-2/24/trash-2-128.png;fillColor=#000000;align=center;" parent="1" vertex="1">
                    <mxGeometry x="1663.52" y="-2445.5000000000005" width="23" height="23" as="geometry"/>
                </mxCell>
                <mxCell id="urUbboM_1R0ok-0YM-QM-104" value="" style="rounded=1;whiteSpace=wrap;html=1;align=left;arcSize=50;fillColor=#ffe6cc;strokeColor=#d79b00;" parent="1" vertex="1">
                    <mxGeometry x="1554.6200000000001" y="-2427.9300000000003" width="170.75" height="40" as="geometry"/>
                </mxCell>
                <mxCell id="urUbboM_1R0ok-0YM-QM-105" value="" style="shape=cross;whiteSpace=wrap;html=1;align=left;fillColor=#000000;size=0.12586206896552313;" parent="1" vertex="1">
                    <mxGeometry x="1570" y="-2417.9300000000003" width="20" height="20" as="geometry"/>
                </mxCell>
                <mxCell id="urUbboM_1R0ok-0YM-QM-106" value="Ajouter une vente" style="text;html=1;strokeColor=none;fillColor=none;align=center;verticalAlign=middle;whiteSpace=wrap;rounded=0;" parent="1" vertex="1">
                    <mxGeometry x="1595" y="-2417.9300000000003" width="110" height="20" as="geometry"/>
                </mxCell>
                <mxCell id="urUbboM_1R0ok-0YM-QM-150" value="" style="shape=image;html=1;verticalAlign=top;verticalLabelPosition=bottom;labelBackgroundColor=#ffffff;imageAspect=0;aspect=fixed;image=https://cdn4.iconfinder.com/data/icons/multimedia-75/512/multimedia-24-128.png" parent="1" vertex="1">
                    <mxGeometry x="-640" y="-2150" width="20" height="20" as="geometry"/>
                </mxCell>
                <mxCell id="urUbboM_1R0ok-0YM-QM-152" value="" style="rounded=0;whiteSpace=wrap;html=1;align=left;" parent="1" vertex="1">
                    <mxGeometry x="50" y="-2155" width="230" height="30" as="geometry"/>
                </mxCell>
                <mxCell id="urUbboM_1R0ok-0YM-QM-153" value="Pannier" style="text;html=1;strokeColor=none;fillColor=none;align=center;verticalAlign=middle;whiteSpace=wrap;rounded=0;" parent="1" vertex="1">
                    <mxGeometry x="85" y="-2150" width="50" height="20" as="geometry"/>
                </mxCell>
                <mxCell id="urUbboM_1R0ok-0YM-QM-154" value="" style="shape=image;html=1;verticalAlign=top;verticalLabelPosition=bottom;labelBackgroundColor=#ffffff;imageAspect=0;aspect=fixed;image=https://cdn4.iconfinder.com/data/icons/multimedia-75/512/multimedia-24-128.png" parent="1" vertex="1">
                    <mxGeometry x="60" y="-2150" width="20" height="20" as="geometry"/>
                </mxCell>
                <mxCell id="urUbboM_1R0ok-0YM-QM-155" value="" style="rounded=0;whiteSpace=wrap;html=1;align=left;" parent="1" vertex="1">
                    <mxGeometry x="340" y="-2155" width="230" height="30" as="geometry"/>
                </mxCell>
                <mxCell id="urUbboM_1R0ok-0YM-QM-156" value="Pannier" style="text;html=1;strokeColor=none;fillColor=none;align=center;verticalAlign=middle;whiteSpace=wrap;rounded=0;" parent="1" vertex="1">
                    <mxGeometry x="375" y="-2150" width="50" height="20" as="geometry"/>
                </mxCell>
                <mxCell id="urUbboM_1R0ok-0YM-QM-157" value="" style="shape=image;html=1;verticalAlign=top;verticalLabelPosition=bottom;labelBackgroundColor=#ffffff;imageAspect=0;aspect=fixed;image=https://cdn4.iconfinder.com/data/icons/multimedia-75/512/multimedia-24-128.png" parent="1" vertex="1">
                    <mxGeometry x="350" y="-2150" width="20" height="20" as="geometry"/>
                </mxCell>
                <mxCell id="urUbboM_1R0ok-0YM-QM-158" value="" style="rounded=0;whiteSpace=wrap;html=1;align=left;" parent="1" vertex="1">
                    <mxGeometry x="630" y="-2155" width="230" height="30" as="geometry"/>
                </mxCell>
                <mxCell id="urUbboM_1R0ok-0YM-QM-159" value="Pannier" style="text;html=1;strokeColor=none;fillColor=none;align=center;verticalAlign=middle;whiteSpace=wrap;rounded=0;" parent="1" vertex="1">
                    <mxGeometry x="665" y="-2150" width="50" height="20" as="geometry"/>
                </mxCell>
                <mxCell id="urUbboM_1R0ok-0YM-QM-160" value="" style="shape=image;html=1;verticalAlign=top;verticalLabelPosition=bottom;labelBackgroundColor=#ffffff;imageAspect=0;aspect=fixed;image=https://cdn4.iconfinder.com/data/icons/multimedia-75/512/multimedia-24-128.png" parent="1" vertex="1">
                    <mxGeometry x="640" y="-2150" width="20" height="20" as="geometry"/>
                </mxCell>
                <mxCell id="urUbboM_1R0ok-0YM-QM-161" value="" style="rounded=0;whiteSpace=wrap;html=1;align=left;" parent="1" vertex="1">
                    <mxGeometry x="930" y="-2155" width="230" height="30" as="geometry"/>
                </mxCell>
                <mxCell id="urUbboM_1R0ok-0YM-QM-162" value="Pannier" style="text;html=1;strokeColor=none;fillColor=none;align=center;verticalAlign=middle;whiteSpace=wrap;rounded=0;" parent="1" vertex="1">
                    <mxGeometry x="965" y="-2150" width="50" height="20" as="geometry"/>
                </mxCell>
                <mxCell id="urUbboM_1R0ok-0YM-QM-163" value="" style="shape=image;html=1;verticalAlign=top;verticalLabelPosition=bottom;labelBackgroundColor=#ffffff;imageAspect=0;aspect=fixed;image=https://cdn4.iconfinder.com/data/icons/multimedia-75/512/multimedia-24-128.png" parent="1" vertex="1">
                    <mxGeometry x="940" y="-2150" width="20" height="20" as="geometry"/>
                </mxCell>
                <mxCell id="urUbboM_1R0ok-0YM-QM-164" value="" style="rounded=0;whiteSpace=wrap;html=1;align=left;" parent="1" vertex="1">
                    <mxGeometry x="930" y="-1710" width="230" height="30" as="geometry"/>
                </mxCell>
                <mxCell id="urUbboM_1R0ok-0YM-QM-165" value="Pannier" style="text;html=1;strokeColor=none;fillColor=none;align=center;verticalAlign=middle;whiteSpace=wrap;rounded=0;" parent="1" vertex="1">
                    <mxGeometry x="965" y="-1705" width="50" height="20" as="geometry"/>
                </mxCell>
                <mxCell id="urUbboM_1R0ok-0YM-QM-166" value="" style="shape=image;html=1;verticalAlign=top;verticalLabelPosition=bottom;labelBackgroundColor=#ffffff;imageAspect=0;aspect=fixed;image=https://cdn4.iconfinder.com/data/icons/multimedia-75/512/multimedia-24-128.png" parent="1" vertex="1">
                    <mxGeometry x="940" y="-1705" width="20" height="20" as="geometry"/>
                </mxCell>
                <mxCell id="urUbboM_1R0ok-0YM-QM-167" value="" style="shape=image;html=1;verticalAlign=top;verticalLabelPosition=bottom;labelBackgroundColor=#ffffff;imageAspect=0;aspect=fixed;image=https://cdn3.iconfinder.com/data/icons/user-interface-169/32/logout-128.png" parent="1" vertex="1">
                    <mxGeometry x="-446.75" y="-2150" width="20" height="20" as="geometry"/>
                </mxCell>
                <mxCell id="urUbboM_1R0ok-0YM-QM-168" value="" style="shape=image;html=1;verticalAlign=top;verticalLabelPosition=bottom;labelBackgroundColor=#ffffff;imageAspect=0;aspect=fixed;image=https://cdn3.iconfinder.com/data/icons/user-interface-169/32/logout-128.png" parent="1" vertex="1">
                    <mxGeometry x="255" y="-2150" width="20" height="20" as="geometry"/>
                </mxCell>
                <mxCell id="urUbboM_1R0ok-0YM-QM-169" value="" style="shape=image;html=1;verticalAlign=top;verticalLabelPosition=bottom;labelBackgroundColor=#ffffff;imageAspect=0;aspect=fixed;image=https://cdn3.iconfinder.com/data/icons/user-interface-169/32/logout-128.png" parent="1" vertex="1">
                    <mxGeometry x="543.5" y="-2150" width="20" height="20" as="geometry"/>
                </mxCell>
                <mxCell id="urUbboM_1R0ok-0YM-QM-170" value="" style="shape=image;html=1;verticalAlign=top;verticalLabelPosition=bottom;labelBackgroundColor=#ffffff;imageAspect=0;aspect=fixed;image=https://cdn3.iconfinder.com/data/icons/user-interface-169/32/logout-128.png" parent="1" vertex="1">
                    <mxGeometry x="834" y="-2150" width="20" height="20" as="geometry"/>
                </mxCell>
                <mxCell id="urUbboM_1R0ok-0YM-QM-171" value="" style="shape=image;html=1;verticalAlign=top;verticalLabelPosition=bottom;labelBackgroundColor=#ffffff;imageAspect=0;aspect=fixed;image=https://cdn3.iconfinder.com/data/icons/user-interface-169/32/logout-128.png" parent="1" vertex="1">
                    <mxGeometry x="1132" y="-2150" width="20" height="20" as="geometry"/>
                </mxCell>
                <mxCell id="urUbboM_1R0ok-0YM-QM-172" value="" style="shape=image;html=1;verticalAlign=top;verticalLabelPosition=bottom;labelBackgroundColor=#ffffff;imageAspect=0;aspect=fixed;image=https://cdn3.iconfinder.com/data/icons/user-interface-169/32/logout-128.png" parent="1" vertex="1">
                    <mxGeometry x="1132" y="-1705" width="20" height="20" as="geometry"/>
                </mxCell>
                <mxCell id="urUbboM_1R0ok-0YM-QM-173" value="&lt;font style=&quot;font-size: 10px&quot;&gt;10/05/2021&lt;/font&gt;" style="text;html=1;strokeColor=none;fillColor=none;align=left;verticalAlign=middle;whiteSpace=wrap;rounded=0;fontColor=#666666;" parent="1" vertex="1">
                    <mxGeometry x="1304.02" y="-2673.06" width="65" height="20" as="geometry"/>
                </mxCell>
                <mxCell id="urUbboM_1R0ok-0YM-QM-174" value="&lt;div align=&quot;left&quot;&gt;&lt;font style=&quot;font-size: 10px&quot;&gt;02/05/2021&lt;/font&gt;&lt;/div&gt;" style="text;html=1;strokeColor=none;fillColor=none;align=left;verticalAlign=middle;whiteSpace=wrap;rounded=0;fontColor=#666666;" parent="1" vertex="1">
                    <mxGeometry x="1304" y="-2614.93" width="65" height="20" as="geometry"/>
                </mxCell>
                <mxCell id="urUbboM_1R0ok-0YM-QM-175" value="&lt;div style=&quot;font-size: 10px&quot; align=&quot;left&quot;&gt;&lt;font style=&quot;font-size: 10px&quot;&gt;30/04/2021&lt;/font&gt;&lt;/div&gt;" style="text;html=1;strokeColor=none;fillColor=none;align=left;verticalAlign=middle;whiteSpace=wrap;rounded=0;fontColor=#666666;" parent="1" vertex="1">
                    <mxGeometry x="1304.02" y="-2554.93" width="65" height="20" as="geometry"/>
                </mxCell>
                <mxCell id="urUbboM_1R0ok-0YM-QM-176" value="&lt;div style=&quot;font-size: 10px&quot; align=&quot;left&quot;&gt;&lt;font style=&quot;font-size: 10px&quot;&gt;30/04/2021&lt;/font&gt;&lt;/div&gt;" style="text;html=1;strokeColor=none;fillColor=none;align=left;verticalAlign=middle;whiteSpace=wrap;rounded=0;fontColor=#666666;" parent="1" vertex="1">
                    <mxGeometry x="1304" y="-2494.93" width="65" height="20" as="geometry"/>
                </mxCell>
                <mxCell id="urUbboM_1R0ok-0YM-QM-177" value="&lt;div style=&quot;font-size: 10px&quot; align=&quot;left&quot;&gt;&lt;font style=&quot;font-size: 10px&quot;&gt;26/03/2021&lt;/font&gt;&lt;/div&gt;" style="text;html=1;strokeColor=none;fillColor=none;align=left;verticalAlign=middle;whiteSpace=wrap;rounded=0;fontColor=#666666;" parent="1" vertex="1">
                    <mxGeometry x="1304" y="-2434.93" width="65" height="20" as="geometry"/>
                </mxCell>
                <mxCell id="urUbboM_1R0ok-0YM-QM-178" value="Cash" style="text;html=1;strokeColor=none;fillColor=none;align=center;verticalAlign=middle;whiteSpace=wrap;rounded=0;fontColor=#666666;" parent="1" vertex="1">
                    <mxGeometry x="1550" y="-2681.31" width="40" height="20" as="geometry"/>
                </mxCell>
                <mxCell id="urUbboM_1R0ok-0YM-QM-179" value="Carte" style="text;html=1;strokeColor=none;fillColor=none;align=center;verticalAlign=middle;whiteSpace=wrap;rounded=0;fontColor=#666666;" parent="1" vertex="1">
                    <mxGeometry x="1550" y="-2623.19" width="40" height="20" as="geometry"/>
                </mxCell>
                <mxCell id="urUbboM_1R0ok-0YM-QM-180" value="Cash" style="text;html=1;strokeColor=none;fillColor=none;align=center;verticalAlign=middle;whiteSpace=wrap;rounded=0;fontColor=#666666;" parent="1" vertex="1">
                    <mxGeometry x="1551" y="-2564" width="40" height="20" as="geometry"/>
                </mxCell>
                <mxCell id="urUbboM_1R0ok-0YM-QM-181" value="Carte" style="text;html=1;strokeColor=none;fillColor=none;align=center;verticalAlign=middle;whiteSpace=wrap;rounded=0;fontColor=#666666;" parent="1" vertex="1">
                    <mxGeometry x="1550" y="-2503.19" width="40" height="20" as="geometry"/>
                </mxCell>
                <mxCell id="urUbboM_1R0ok-0YM-QM-182" value="Cash" style="text;html=1;strokeColor=none;fillColor=none;align=center;verticalAlign=middle;whiteSpace=wrap;rounded=0;fontColor=#666666;" parent="1" vertex="1">
                    <mxGeometry x="1549.62" y="-2444" width="40" height="20" as="geometry"/>
                </mxCell>
                <mxCell id="urUbboM_1R0ok-0YM-QM-183" value="" style="shape=flexArrow;endArrow=classic;html=1;fillColor=#f8cecc;strokeColor=#b85450;exitX=0.25;exitY=1;exitDx=0;exitDy=0;" parent="1" source="urUbboM_1R0ok-0YM-QM-104" edge="1">
                    <mxGeometry width="50" height="50" relative="1" as="geometry">
                        <mxPoint x="803" y="-2230" as="sourcePoint"/>
                        <mxPoint x="-190" y="-2159" as="targetPoint"/>
                        <Array as="points">
                            <mxPoint x="1560" y="-2270"/>
                            <mxPoint x="-140" y="-2270"/>
                        </Array>
                    </mxGeometry>
                </mxCell>
                <mxCell id="urUbboM_1R0ok-0YM-QM-184" value="" style="rounded=0;whiteSpace=wrap;html=1;" parent="1" vertex="1">
                    <mxGeometry x="1955" y="-2697.13" width="403" height="50" as="geometry"/>
                </mxCell>
                <mxCell id="urUbboM_1R0ok-0YM-QM-185" value="Produit 1" style="text;html=1;strokeColor=none;fillColor=none;align=center;verticalAlign=middle;whiteSpace=wrap;rounded=0;" parent="1" vertex="1">
                    <mxGeometry x="1965" y="-2691.06" width="66" height="20" as="geometry"/>
                </mxCell>
                <mxCell id="urUbboM_1R0ok-0YM-QM-186" value="&lt;font style=&quot;font-size: 10px&quot;&gt;15€&lt;/font&gt;&lt;font style=&quot;font-size: 10px&quot;&gt;&amp;nbsp;&amp;nbsp; - &amp;nbsp; Prix d'achat : 10€&lt;/font&gt;" style="text;html=1;strokeColor=none;fillColor=none;align=left;verticalAlign=middle;whiteSpace=wrap;rounded=0;fontColor=#666666;" parent="1" vertex="1">
                    <mxGeometry x="1972.25" y="-2675.06" width="125.75" height="20" as="geometry"/>
                </mxCell>
                <mxCell id="urUbboM_1R0ok-0YM-QM-187" value="Quantité : 14" style="text;html=1;strokeColor=none;fillColor=none;align=center;verticalAlign=middle;whiteSpace=wrap;rounded=0;" parent="1" vertex="1">
                    <mxGeometry x="2175.75" y="-2682.13" width="77" height="20" as="geometry"/>
                </mxCell>
                <mxCell id="urUbboM_1R0ok-0YM-QM-188" value="" style="rounded=0;whiteSpace=wrap;html=1;" parent="1" vertex="1">
                    <mxGeometry x="1955" y="-2639" width="403" height="50" as="geometry"/>
                </mxCell>
                <mxCell id="urUbboM_1R0ok-0YM-QM-189" value="Produit 1" style="text;html=1;strokeColor=none;fillColor=none;align=center;verticalAlign=middle;whiteSpace=wrap;rounded=0;" parent="1" vertex="1">
                    <mxGeometry x="1965" y="-2632.93" width="66" height="20" as="geometry"/>
                </mxCell>
                <mxCell id="urUbboM_1R0ok-0YM-QM-191" value="Quantité : -2" style="text;html=1;strokeColor=none;fillColor=none;align=center;verticalAlign=middle;whiteSpace=wrap;rounded=0;" parent="1" vertex="1">
                    <mxGeometry x="2175.75" y="-2624" width="77" height="20" as="geometry"/>
                </mxCell>
                <mxCell id="urUbboM_1R0ok-0YM-QM-192" value="" style="rounded=0;whiteSpace=wrap;html=1;" parent="1" vertex="1">
                    <mxGeometry x="1955" y="-2579" width="403" height="50" as="geometry"/>
                </mxCell>
                <mxCell id="urUbboM_1R0ok-0YM-QM-193" value="Produit 1" style="text;html=1;strokeColor=none;fillColor=none;align=center;verticalAlign=middle;whiteSpace=wrap;rounded=0;" parent="1" vertex="1">
                    <mxGeometry x="1965" y="-2572.93" width="66" height="20" as="geometry"/>
                </mxCell>
                <mxCell id="urUbboM_1R0ok-0YM-QM-195" value="Quantité : 10" style="text;html=1;strokeColor=none;fillColor=none;align=center;verticalAlign=middle;whiteSpace=wrap;rounded=0;" parent="1" vertex="1">
                    <mxGeometry x="2175.75" y="-2564" width="77" height="20" as="geometry"/>
                </mxCell>
                <mxCell id="urUbboM_1R0ok-0YM-QM-196" value="" style="rounded=0;whiteSpace=wrap;html=1;" parent="1" vertex="1">
                    <mxGeometry x="1955" y="-2519" width="403" height="50" as="geometry"/>
                </mxCell>
                <mxCell id="urUbboM_1R0ok-0YM-QM-197" value="Produit 3" style="text;html=1;strokeColor=none;fillColor=none;align=center;verticalAlign=middle;whiteSpace=wrap;rounded=0;" parent="1" vertex="1">
                    <mxGeometry x="1965" y="-2512.93" width="66" height="20" as="geometry"/>
                </mxCell>
                <mxCell id="urUbboM_1R0ok-0YM-QM-198" value="&lt;font style=&quot;font-size: 10px&quot;&gt;13€&lt;/font&gt;&lt;font style=&quot;font-size: 10px&quot;&gt;&amp;nbsp;&amp;nbsp; - &amp;nbsp; Prix d'achat : 10€&lt;/font&gt;" style="text;html=1;strokeColor=none;fillColor=none;align=left;verticalAlign=middle;whiteSpace=wrap;rounded=0;fontColor=#666666;" parent="1" vertex="1">
                    <mxGeometry x="1972.25" y="-2496.93" width="125.75" height="20" as="geometry"/>
                </mxCell>
                <mxCell id="urUbboM_1R0ok-0YM-QM-199" value="Quantité : 15" style="text;html=1;strokeColor=none;fillColor=none;align=center;verticalAlign=middle;whiteSpace=wrap;rounded=0;" parent="1" vertex="1">
                    <mxGeometry x="2175.75" y="-2504" width="77" height="20" as="geometry"/>
                </mxCell>
                <mxCell id="urUbboM_1R0ok-0YM-QM-200" value="" style="rounded=0;whiteSpace=wrap;html=1;" parent="1" vertex="1">
                    <mxGeometry x="1955" y="-2459" width="403" height="50" as="geometry"/>
                </mxCell>
                <mxCell id="urUbboM_1R0ok-0YM-QM-201" value="Produit 5" style="text;html=1;strokeColor=none;fillColor=none;align=center;verticalAlign=middle;whiteSpace=wrap;rounded=0;" parent="1" vertex="1">
                    <mxGeometry x="1965" y="-2452.93" width="66" height="20" as="geometry"/>
                </mxCell>
                <mxCell id="urUbboM_1R0ok-0YM-QM-202" value="&lt;font style=&quot;font-size: 10px&quot;&gt;15€&lt;/font&gt;&lt;font style=&quot;font-size: 10px&quot;&gt;&amp;nbsp;&amp;nbsp; - &amp;nbsp; Prix d'achat : 10€&lt;/font&gt;" style="text;html=1;strokeColor=none;fillColor=none;align=left;verticalAlign=middle;whiteSpace=wrap;rounded=0;fontColor=#666666;" parent="1" vertex="1">
                    <mxGeometry x="1972.25" y="-2436.93" width="125.75" height="20" as="geometry"/>
                </mxCell>
                <mxCell id="urUbboM_1R0ok-0YM-QM-203" value="Quantité : 18" style="text;html=1;strokeColor=none;fillColor=none;align=center;verticalAlign=middle;whiteSpace=wrap;rounded=0;" parent="1" vertex="1">
                    <mxGeometry x="2175.75" y="-2444" width="77" height="20" as="geometry"/>
                </mxCell>
                <mxCell id="urUbboM_1R0ok-0YM-QM-204" value="" style="shape=image;html=1;verticalAlign=top;verticalLabelPosition=bottom;labelBackgroundColor=#ffffff;imageAspect=0;aspect=fixed;image=https://cdn3.iconfinder.com/data/icons/user-interface-169/32/chevron-bottom-128.png;align=left;" parent="1" vertex="1">
                    <mxGeometry x="2345" y="-2722" width="10" height="10" as="geometry"/>
                </mxCell>
                <mxCell id="urUbboM_1R0ok-0YM-QM-205" value="&lt;font style=&quot;font-size: 10px&quot;&gt;Trier par&lt;/font&gt;" style="text;html=1;strokeColor=none;fillColor=none;align=center;verticalAlign=middle;whiteSpace=wrap;rounded=0;fontColor=#000000;" parent="1" vertex="1">
                    <mxGeometry x="2288" y="-2729" width="57" height="20" as="geometry"/>
                </mxCell>
                <mxCell id="urUbboM_1R0ok-0YM-QM-206" value="&lt;font style=&quot;font-size: 10px&quot;&gt;15€&lt;/font&gt;&lt;font style=&quot;font-size: 10px&quot;&gt;&amp;nbsp;&amp;nbsp; - &amp;nbsp; Prix d'achat : 10€&lt;/font&gt;" style="text;html=1;strokeColor=none;fillColor=none;align=left;verticalAlign=middle;whiteSpace=wrap;rounded=0;fontColor=#666666;" parent="1" vertex="1">
                    <mxGeometry x="1971" y="-2614.93" width="125.75" height="20" as="geometry"/>
                </mxCell>
                <mxCell id="urUbboM_1R0ok-0YM-QM-207" value="&lt;font style=&quot;font-size: 10px&quot;&gt;15€&lt;/font&gt;&lt;font style=&quot;font-size: 10px&quot;&gt;&amp;nbsp;&amp;nbsp; - &amp;nbsp; Prix d'achat : 10€&lt;/font&gt;" style="text;html=1;strokeColor=none;fillColor=none;align=left;verticalAlign=middle;whiteSpace=wrap;rounded=0;fontColor=#666666;" parent="1" vertex="1">
                    <mxGeometry x="1971" y="-2556.93" width="125.75" height="20" as="geometry"/>
                </mxCell>
                <mxCell id="urUbboM_1R0ok-0YM-QM-213" value="" style="rounded=1;whiteSpace=wrap;html=1;align=center;fillColor=#dae8fc;strokeColor=#6c8ebf;" parent="1" vertex="1">
                    <mxGeometry x="2280.99" y="-2686.6699999999996" width="30" height="30" as="geometry"/>
                </mxCell>
                <mxCell id="urUbboM_1R0ok-0YM-QM-214" value="" style="shape=image;html=1;verticalAlign=top;verticalLabelPosition=bottom;labelBackgroundColor=#ffffff;imageAspect=0;aspect=fixed;image=https://cdn1.iconfinder.com/data/icons/feather-2/24/edit-128.png;fillColor=#000000;align=center;" parent="1" vertex="1">
                    <mxGeometry x="2284.99" y="-2682.24" width="22.77" height="22.77" as="geometry"/>
                </mxCell>
                <mxCell id="urUbboM_1R0ok-0YM-QM-215" value="" style="rounded=1;whiteSpace=wrap;html=1;fillColor=#f8cecc;align=center;strokeColor=#b85450;" parent="1" vertex="1">
                    <mxGeometry x="2314.99" y="-2686.67" width="30" height="30" as="geometry"/>
                </mxCell>
                <mxCell id="urUbboM_1R0ok-0YM-QM-216" value="" style="shape=image;html=1;verticalAlign=top;verticalLabelPosition=bottom;labelBackgroundColor=#ffffff;imageAspect=0;aspect=fixed;image=https://cdn1.iconfinder.com/data/icons/feather-2/24/trash-2-128.png;fillColor=#000000;align=center;" parent="1" vertex="1">
                    <mxGeometry x="2318.49" y="-2683.17" width="23" height="23" as="geometry"/>
                </mxCell>
                <mxCell id="urUbboM_1R0ok-0YM-QM-217" value="" style="rounded=1;whiteSpace=wrap;html=1;align=center;fillColor=#dae8fc;strokeColor=#6c8ebf;" parent="1" vertex="1">
                    <mxGeometry x="2281" y="-2628.54" width="30" height="30" as="geometry"/>
                </mxCell>
                <mxCell id="urUbboM_1R0ok-0YM-QM-218" value="" style="shape=image;html=1;verticalAlign=top;verticalLabelPosition=bottom;labelBackgroundColor=#ffffff;imageAspect=0;aspect=fixed;image=https://cdn1.iconfinder.com/data/icons/feather-2/24/edit-128.png;fillColor=#000000;align=center;" parent="1" vertex="1">
                    <mxGeometry x="2285" y="-2624.11" width="22.77" height="22.77" as="geometry"/>
                </mxCell>
                <mxCell id="urUbboM_1R0ok-0YM-QM-219" value="" style="rounded=1;whiteSpace=wrap;html=1;fillColor=#f8cecc;align=center;strokeColor=#b85450;" parent="1" vertex="1">
                    <mxGeometry x="2315" y="-2628.5400000000004" width="30" height="30" as="geometry"/>
                </mxCell>
                <mxCell id="urUbboM_1R0ok-0YM-QM-220" value="" style="shape=image;html=1;verticalAlign=top;verticalLabelPosition=bottom;labelBackgroundColor=#ffffff;imageAspect=0;aspect=fixed;image=https://cdn1.iconfinder.com/data/icons/feather-2/24/trash-2-128.png;fillColor=#000000;align=center;" parent="1" vertex="1">
                    <mxGeometry x="2318.5" y="-2625.0400000000004" width="23" height="23" as="geometry"/>
                </mxCell>
                <mxCell id="urUbboM_1R0ok-0YM-QM-221" value="" style="rounded=1;whiteSpace=wrap;html=1;align=center;fillColor=#dae8fc;strokeColor=#6c8ebf;" parent="1" vertex="1">
                    <mxGeometry x="2280.99" y="-2569.54" width="30" height="30" as="geometry"/>
                </mxCell>
                <mxCell id="urUbboM_1R0ok-0YM-QM-222" value="" style="shape=image;html=1;verticalAlign=top;verticalLabelPosition=bottom;labelBackgroundColor=#ffffff;imageAspect=0;aspect=fixed;image=https://cdn1.iconfinder.com/data/icons/feather-2/24/edit-128.png;fillColor=#000000;align=center;" parent="1" vertex="1">
                    <mxGeometry x="2284.99" y="-2565.11" width="22.77" height="22.77" as="geometry"/>
                </mxCell>
                <mxCell id="urUbboM_1R0ok-0YM-QM-223" value="" style="rounded=1;whiteSpace=wrap;html=1;fillColor=#f8cecc;align=center;strokeColor=#b85450;" parent="1" vertex="1">
                    <mxGeometry x="2314.99" y="-2569.5400000000004" width="30" height="30" as="geometry"/>
                </mxCell>
                <mxCell id="urUbboM_1R0ok-0YM-QM-224" value="" style="shape=image;html=1;verticalAlign=top;verticalLabelPosition=bottom;labelBackgroundColor=#ffffff;imageAspect=0;aspect=fixed;image=https://cdn1.iconfinder.com/data/icons/feather-2/24/trash-2-128.png;fillColor=#000000;align=center;" parent="1" vertex="1">
                    <mxGeometry x="2318.49" y="-2566.0400000000004" width="23" height="23" as="geometry"/>
                </mxCell>
                <mxCell id="urUbboM_1R0ok-0YM-QM-225" value="" style="rounded=1;whiteSpace=wrap;html=1;align=center;fillColor=#dae8fc;strokeColor=#6c8ebf;" parent="1" vertex="1">
                    <mxGeometry x="2280.99" y="-2508.54" width="30" height="30" as="geometry"/>
                </mxCell>
                <mxCell id="urUbboM_1R0ok-0YM-QM-226" value="" style="shape=image;html=1;verticalAlign=top;verticalLabelPosition=bottom;labelBackgroundColor=#ffffff;imageAspect=0;aspect=fixed;image=https://cdn1.iconfinder.com/data/icons/feather-2/24/edit-128.png;fillColor=#000000;align=center;" parent="1" vertex="1">
                    <mxGeometry x="2284.99" y="-2504.11" width="22.77" height="22.77" as="geometry"/>
                </mxCell>
                <mxCell id="urUbboM_1R0ok-0YM-QM-227" value="" style="rounded=1;whiteSpace=wrap;html=1;fillColor=#f8cecc;align=center;strokeColor=#b85450;" parent="1" vertex="1">
                    <mxGeometry x="2314.99" y="-2508.5400000000004" width="30" height="30" as="geometry"/>
                </mxCell>
                <mxCell id="urUbboM_1R0ok-0YM-QM-228" value="" style="shape=image;html=1;verticalAlign=top;verticalLabelPosition=bottom;labelBackgroundColor=#ffffff;imageAspect=0;aspect=fixed;image=https://cdn1.iconfinder.com/data/icons/feather-2/24/trash-2-128.png;fillColor=#000000;align=center;" parent="1" vertex="1">
                    <mxGeometry x="2318.49" y="-2505.0400000000004" width="23" height="23" as="geometry"/>
                </mxCell>
                <mxCell id="urUbboM_1R0ok-0YM-QM-231" value="" style="rounded=1;whiteSpace=wrap;html=1;align=center;fillColor=#dae8fc;strokeColor=#6c8ebf;" parent="1" vertex="1">
                    <mxGeometry x="2280.99" y="-2448.18" width="30" height="30" as="geometry"/>
                </mxCell>
                <mxCell id="urUbboM_1R0ok-0YM-QM-232" value="" style="shape=image;html=1;verticalAlign=top;verticalLabelPosition=bottom;labelBackgroundColor=#ffffff;imageAspect=0;aspect=fixed;image=https://cdn1.iconfinder.com/data/icons/feather-2/24/edit-128.png;fillColor=#000000;align=center;" parent="1" vertex="1">
                    <mxGeometry x="2284.99" y="-2443.75" width="22.77" height="22.77" as="geometry"/>
                </mxCell>
                <mxCell id="urUbboM_1R0ok-0YM-QM-233" value="" style="rounded=1;whiteSpace=wrap;html=1;fillColor=#f8cecc;align=center;strokeColor=#b85450;" parent="1" vertex="1">
                    <mxGeometry x="2314.99" y="-2448.1800000000003" width="30" height="30" as="geometry"/>
                </mxCell>
                <mxCell id="urUbboM_1R0ok-0YM-QM-234" value="" style="shape=image;html=1;verticalAlign=top;verticalLabelPosition=bottom;labelBackgroundColor=#ffffff;imageAspect=0;aspect=fixed;image=https://cdn1.iconfinder.com/data/icons/feather-2/24/trash-2-128.png;fillColor=#000000;align=center;" parent="1" vertex="1">
                    <mxGeometry x="2318.49" y="-2444.6800000000003" width="23" height="23" as="geometry"/>
                </mxCell>
                <mxCell id="urUbboM_1R0ok-0YM-QM-210" value="" style="rounded=1;whiteSpace=wrap;html=1;align=left;arcSize=50;fillColor=#ffe6cc;strokeColor=#d79b00;" parent="1" vertex="1">
                    <mxGeometry x="2211.63" y="-2427.9300000000003" width="170.75" height="40" as="geometry"/>
                </mxCell>
                <mxCell id="urUbboM_1R0ok-0YM-QM-211" value="" style="shape=cross;whiteSpace=wrap;html=1;align=left;fillColor=#000000;size=0.12586206896552313;" parent="1" vertex="1">
                    <mxGeometry x="2227.01" y="-2417.9300000000003" width="20" height="20" as="geometry"/>
                </mxCell>
                <mxCell id="urUbboM_1R0ok-0YM-QM-212" value="Ajouter une entrée" style="text;html=1;strokeColor=none;fillColor=none;align=center;verticalAlign=middle;whiteSpace=wrap;rounded=0;" parent="1" vertex="1">
                    <mxGeometry x="2252.01" y="-2417.9300000000003" width="110" height="20" as="geometry"/>
                </mxCell>
                <mxCell id="urUbboM_1R0ok-0YM-QM-236" value="" style="rounded=0;whiteSpace=wrap;html=1;" parent="1" vertex="1">
                    <mxGeometry x="1790" y="-2312.5" width="620" height="420" as="geometry"/>
                </mxCell>
                <mxCell id="urUbboM_1R0ok-0YM-QM-237" value="" style="rounded=0;whiteSpace=wrap;html=1;align=left;" parent="1" vertex="1">
                    <mxGeometry x="1790" y="-2312.5" width="620" height="30" as="geometry"/>
                </mxCell>
                <mxCell id="urUbboM_1R0ok-0YM-QM-238" value="" style="rounded=0;whiteSpace=wrap;html=1;" parent="1" vertex="1">
                    <mxGeometry x="1790" y="-2282.5" width="110" height="390" as="geometry"/>
                </mxCell>
                <mxCell id="urUbboM_1R0ok-0YM-QM-239" value="SEP" style="text;html=1;strokeColor=none;fillColor=none;align=center;verticalAlign=middle;whiteSpace=wrap;rounded=0;" parent="1" vertex="1">
                    <mxGeometry x="1825" y="-2307.5" width="40" height="20" as="geometry"/>
                </mxCell>
                <mxCell id="urUbboM_1R0ok-0YM-QM-240" value="" style="shape=image;html=1;verticalAlign=top;verticalLabelPosition=bottom;labelBackgroundColor=#ffffff;imageAspect=0;aspect=fixed;image=https://cdn4.iconfinder.com/data/icons/multimedia-75/512/multimedia-24-128.png" parent="1" vertex="1">
                    <mxGeometry x="1800" y="-2307.5" width="20" height="20" as="geometry"/>
                </mxCell>
                <mxCell id="urUbboM_1R0ok-0YM-QM-241" value="&lt;div align=&quot;left&quot;&gt;&amp;nbsp; Stock&lt;/div&gt;" style="rounded=0;whiteSpace=wrap;html=1;align=left;" parent="1" vertex="1">
                    <mxGeometry x="1790" y="-2282.5" width="110" height="30" as="geometry"/>
                </mxCell>
                <mxCell id="urUbboM_1R0ok-0YM-QM-242" value="&lt;div align=&quot;left&quot;&gt;&amp;nbsp; Entrées&lt;br&gt;&lt;/div&gt;" style="rounded=0;whiteSpace=wrap;html=1;align=left;fillColor=#ffe6cc;strokeColor=#d79b00;" parent="1" vertex="1">
                    <mxGeometry x="1790" y="-2222.5" width="110" height="30" as="geometry"/>
                </mxCell>
                <mxCell id="urUbboM_1R0ok-0YM-QM-243" value="&lt;div align=&quot;left&quot;&gt;&amp;nbsp; Ventes&lt;/div&gt;" style="rounded=0;whiteSpace=wrap;html=1;align=left;" parent="1" vertex="1">
                    <mxGeometry x="1790" y="-2252.5" width="110" height="30" as="geometry"/>
                </mxCell>
                <mxCell id="urUbboM_1R0ok-0YM-QM-244" value="Username" style="text;html=1;strokeColor=none;fillColor=none;align=center;verticalAlign=middle;whiteSpace=wrap;rounded=0;" parent="1" vertex="1">
                    <mxGeometry x="2300" y="-2307.5" width="70" height="20" as="geometry"/>
                </mxCell>
                <mxCell id="urUbboM_1R0ok-0YM-QM-245" value="" style="shape=image;html=1;verticalAlign=top;verticalLabelPosition=bottom;labelBackgroundColor=#ffffff;imageAspect=0;aspect=fixed;image=https://cdn3.iconfinder.com/data/icons/user-interface-169/32/logout-128.png" parent="1" vertex="1">
                    <mxGeometry x="2380" y="-2307.5" width="20" height="20" as="geometry"/>
                </mxCell>
                <mxCell id="urUbboM_1R0ok-0YM-QM-246" value="&lt;font size=&quot;1&quot;&gt;&lt;b style=&quot;font-size: 14px&quot;&gt;Ajouter une entrée&lt;/b&gt;&lt;/font&gt;" style="text;html=1;strokeColor=none;fillColor=none;align=left;verticalAlign=middle;whiteSpace=wrap;rounded=0;" parent="1" vertex="1">
                    <mxGeometry x="1955" y="-2261.5" width="135" height="20" as="geometry"/>
                </mxCell>
                <mxCell id="urUbboM_1R0ok-0YM-QM-294" value="" style="rounded=1;whiteSpace=wrap;html=1;align=center;" parent="1" vertex="1">
                    <mxGeometry x="1958" y="-2234" width="402" height="27" as="geometry"/>
                </mxCell>
                <mxCell id="urUbboM_1R0ok-0YM-QM-293" value="Restockage" style="rounded=1;whiteSpace=wrap;html=1;align=center;" parent="1" vertex="1">
                    <mxGeometry x="2155" y="-2231.25" width="202.01" height="21.25" as="geometry"/>
                </mxCell>
                <mxCell id="urUbboM_1R0ok-0YM-QM-292" value="Nouveau produit" style="rounded=1;whiteSpace=wrap;html=1;align=center;fillColor=#ffe6cc;strokeColor=#d79b00;" parent="1" vertex="1">
                    <mxGeometry x="1961" y="-2231.25" width="185" height="21.25" as="geometry"/>
                </mxCell>
                <mxCell id="urUbboM_1R0ok-0YM-QM-295" value="" style="rounded=0;whiteSpace=wrap;html=1;align=left;" parent="1" vertex="1">
                    <mxGeometry x="1960" y="-2170" width="400" height="20" as="geometry"/>
                </mxCell>
                <mxCell id="urUbboM_1R0ok-0YM-QM-296" value="Nom" style="text;html=1;strokeColor=none;fillColor=none;align=center;verticalAlign=middle;whiteSpace=wrap;rounded=0;" parent="1" vertex="1">
                    <mxGeometry x="1960" y="-2190" width="40" height="20" as="geometry"/>
                </mxCell>
                <mxCell id="urUbboM_1R0ok-0YM-QM-301" value="" style="rounded=0;whiteSpace=wrap;html=1;align=left;" parent="1" vertex="1">
                    <mxGeometry x="1962.01" y="-2115" width="400" height="20" as="geometry"/>
                </mxCell>
                <mxCell id="urUbboM_1R0ok-0YM-QM-302" value="Prix d'achat unitaire" style="text;html=1;strokeColor=none;fillColor=none;align=center;verticalAlign=middle;whiteSpace=wrap;rounded=0;" parent="1" vertex="1">
                    <mxGeometry x="1962.01" y="-2135" width="117.99" height="20" as="geometry"/>
                </mxCell>
                <mxCell id="urUbboM_1R0ok-0YM-QM-303" value="" style="rounded=0;whiteSpace=wrap;html=1;align=left;" parent="1" vertex="1">
                    <mxGeometry x="1962.01" y="-2055" width="400" height="20" as="geometry"/>
                </mxCell>
                <mxCell id="urUbboM_1R0ok-0YM-QM-304" value="Prix de vente unitaire" style="text;html=1;strokeColor=none;fillColor=none;align=center;verticalAlign=middle;whiteSpace=wrap;rounded=0;" parent="1" vertex="1">
                    <mxGeometry x="1962.01" y="-2075" width="127.99" height="20" as="geometry"/>
                </mxCell>
                <mxCell id="urUbboM_1R0ok-0YM-QM-305" value="" style="rounded=0;whiteSpace=wrap;html=1;align=left;" parent="1" vertex="1">
                    <mxGeometry x="1962.01" y="-2000" width="400" height="20" as="geometry"/>
                </mxCell>
                <mxCell id="urUbboM_1R0ok-0YM-QM-306" value="Quantité" style="text;html=1;strokeColor=none;fillColor=none;align=center;verticalAlign=middle;whiteSpace=wrap;rounded=0;" parent="1" vertex="1">
                    <mxGeometry x="1962.01" y="-2020" width="57.99" height="20" as="geometry"/>
                </mxCell>
                <mxCell id="urUbboM_1R0ok-0YM-QM-307" value="&lt;div align=&quot;center&quot;&gt;Sauvgarder&lt;/div&gt;" style="rounded=1;whiteSpace=wrap;html=1;fillColor=#ffe6cc;align=center;strokeColor=#d79b00;" parent="1" vertex="1">
                    <mxGeometry x="1960" y="-1963.5" width="402.01" height="26.5" as="geometry"/>
                </mxCell>
                <mxCell id="urUbboM_1R0ok-0YM-QM-308" value="" style="rounded=0;whiteSpace=wrap;html=1;" parent="1" vertex="1">
                    <mxGeometry x="1790" y="-1865" width="620" height="420" as="geometry"/>
                </mxCell>
                <mxCell id="urUbboM_1R0ok-0YM-QM-309" value="" style="rounded=0;whiteSpace=wrap;html=1;align=left;" parent="1" vertex="1">
                    <mxGeometry x="1790" y="-1865" width="620" height="30" as="geometry"/>
                </mxCell>
                <mxCell id="urUbboM_1R0ok-0YM-QM-310" value="" style="rounded=0;whiteSpace=wrap;html=1;" parent="1" vertex="1">
                    <mxGeometry x="1790" y="-1835" width="110" height="390" as="geometry"/>
                </mxCell>
                <mxCell id="urUbboM_1R0ok-0YM-QM-311" value="SEP" style="text;html=1;strokeColor=none;fillColor=none;align=center;verticalAlign=middle;whiteSpace=wrap;rounded=0;" parent="1" vertex="1">
                    <mxGeometry x="1825" y="-1860" width="40" height="20" as="geometry"/>
                </mxCell>
                <mxCell id="urUbboM_1R0ok-0YM-QM-312" value="" style="shape=image;html=1;verticalAlign=top;verticalLabelPosition=bottom;labelBackgroundColor=#ffffff;imageAspect=0;aspect=fixed;image=https://cdn4.iconfinder.com/data/icons/multimedia-75/512/multimedia-24-128.png" parent="1" vertex="1">
                    <mxGeometry x="1800" y="-1860" width="20" height="20" as="geometry"/>
                </mxCell>
                <mxCell id="urUbboM_1R0ok-0YM-QM-313" value="&lt;div align=&quot;left&quot;&gt;&amp;nbsp; Stock&lt;/div&gt;" style="rounded=0;whiteSpace=wrap;html=1;align=left;" parent="1" vertex="1">
                    <mxGeometry x="1790" y="-1835" width="110" height="30" as="geometry"/>
                </mxCell>
                <mxCell id="urUbboM_1R0ok-0YM-QM-314" value="&lt;div align=&quot;left&quot;&gt;&amp;nbsp; Entrées&lt;br&gt;&lt;/div&gt;" style="rounded=0;whiteSpace=wrap;html=1;align=left;fillColor=#ffe6cc;strokeColor=#d79b00;" parent="1" vertex="1">
                    <mxGeometry x="1790" y="-1775" width="110" height="30" as="geometry"/>
                </mxCell>
                <mxCell id="urUbboM_1R0ok-0YM-QM-315" value="&lt;div align=&quot;left&quot;&gt;&amp;nbsp; Ventes&lt;/div&gt;" style="rounded=0;whiteSpace=wrap;html=1;align=left;" parent="1" vertex="1">
                    <mxGeometry x="1790" y="-1805" width="110" height="30" as="geometry"/>
                </mxCell>
                <mxCell id="urUbboM_1R0ok-0YM-QM-316" value="Username" style="text;html=1;strokeColor=none;fillColor=none;align=center;verticalAlign=middle;whiteSpace=wrap;rounded=0;" parent="1" vertex="1">
                    <mxGeometry x="2300" y="-1860" width="70" height="20" as="geometry"/>
                </mxCell>
                <mxCell id="urUbboM_1R0ok-0YM-QM-317" value="" style="shape=image;html=1;verticalAlign=top;verticalLabelPosition=bottom;labelBackgroundColor=#ffffff;imageAspect=0;aspect=fixed;image=https://cdn3.iconfinder.com/data/icons/user-interface-169/32/logout-128.png" parent="1" vertex="1">
                    <mxGeometry x="2380" y="-1860" width="20" height="20" as="geometry"/>
                </mxCell>
                <mxCell id="urUbboM_1R0ok-0YM-QM-318" value="&lt;font size=&quot;1&quot;&gt;&lt;b style=&quot;font-size: 14px&quot;&gt;Ajouter une entrée&lt;/b&gt;&lt;/font&gt;" style="text;html=1;strokeColor=none;fillColor=none;align=left;verticalAlign=middle;whiteSpace=wrap;rounded=0;" parent="1" vertex="1">
                    <mxGeometry x="1955" y="-1814" width="135" height="20" as="geometry"/>
                </mxCell>
                <mxCell id="urUbboM_1R0ok-0YM-QM-319" value="" style="rounded=1;whiteSpace=wrap;html=1;align=center;" parent="1" vertex="1">
                    <mxGeometry x="1958" y="-1786.5" width="402" height="27" as="geometry"/>
                </mxCell>
                <mxCell id="urUbboM_1R0ok-0YM-QM-320" value="Restockage" style="rounded=1;whiteSpace=wrap;html=1;align=center;fillColor=#ffe6cc;strokeColor=#d79b00;" parent="1" vertex="1">
                    <mxGeometry x="2155" y="-1783.75" width="202.01" height="21.25" as="geometry"/>
                </mxCell>
                <mxCell id="urUbboM_1R0ok-0YM-QM-321" value="Nouveau produit" style="rounded=1;whiteSpace=wrap;html=1;align=center;" parent="1" vertex="1">
                    <mxGeometry x="1961" y="-1783.75" width="185" height="21.25" as="geometry"/>
                </mxCell>
                <mxCell id="urUbboM_1R0ok-0YM-QM-322" value="&amp;nbsp;-- Choisissez un produit --" style="rounded=0;whiteSpace=wrap;html=1;align=left;" parent="1" vertex="1">
                    <mxGeometry x="1960" y="-1722.5" width="400" height="20" as="geometry"/>
                </mxCell>
                <mxCell id="urUbboM_1R0ok-0YM-QM-323" value="Produit" style="text;html=1;strokeColor=none;fillColor=none;align=center;verticalAlign=middle;whiteSpace=wrap;rounded=0;" parent="1" vertex="1">
                    <mxGeometry x="1960" y="-1742.5" width="50" height="20" as="geometry"/>
                </mxCell>
                <mxCell id="urUbboM_1R0ok-0YM-QM-328" value="" style="rounded=0;whiteSpace=wrap;html=1;align=left;" parent="1" vertex="1">
                    <mxGeometry x="1961" y="-1665" width="400" height="20" as="geometry"/>
                </mxCell>
                <mxCell id="urUbboM_1R0ok-0YM-QM-329" value="Quantité" style="text;html=1;strokeColor=none;fillColor=none;align=center;verticalAlign=middle;whiteSpace=wrap;rounded=0;" parent="1" vertex="1">
                    <mxGeometry x="1961" y="-1685" width="57.99" height="20" as="geometry"/>
                </mxCell>
                <mxCell id="urUbboM_1R0ok-0YM-QM-330" value="&lt;div align=&quot;center&quot;&gt;Sauvgarder&lt;/div&gt;" style="rounded=1;whiteSpace=wrap;html=1;fillColor=#ffe6cc;align=center;strokeColor=#d79b00;" parent="1" vertex="1">
                    <mxGeometry x="1958.99" y="-1628.5" width="402.01" height="26.5" as="geometry"/>
                </mxCell>
                <mxCell id="urUbboM_1R0ok-0YM-QM-331" value="" style="shape=image;html=1;verticalAlign=top;verticalLabelPosition=bottom;labelBackgroundColor=#ffffff;imageAspect=0;aspect=fixed;image=https://cdn3.iconfinder.com/data/icons/user-interface-169/32/chevron-bottom-128.png;align=left;" parent="1" vertex="1">
                    <mxGeometry x="2342.5" y="-1717" width="10" height="10" as="geometry"/>
                </mxCell>
                <mxCell id="8" value="packs" style="shape=table;startSize=30;container=1;collapsible=1;childLayout=tableLayout;fixedRows=1;rowLines=0;fontStyle=1;align=center;resizeLast=1;" parent="1" vertex="1">
                    <mxGeometry x="-550.46" y="-3187" width="180" height="100" as="geometry"/>
                </mxCell>
                <mxCell id="9" value="" style="shape=partialRectangle;collapsible=0;dropTarget=0;pointerEvents=0;fillColor=none;top=0;left=0;bottom=1;right=0;points=[[0,0.5],[1,0.5]];portConstraint=eastwest;" parent="8" vertex="1">
                    <mxGeometry y="30" width="180" height="30" as="geometry"/>
                </mxCell>
                <mxCell id="10" value="PK" style="shape=partialRectangle;connectable=0;fillColor=none;top=0;left=0;bottom=0;right=0;fontStyle=1;overflow=hidden;" parent="9" vertex="1">
                    <mxGeometry width="30" height="30" as="geometry"/>
                </mxCell>
                <mxCell id="11" value="id" style="shape=partialRectangle;connectable=0;fillColor=none;top=0;left=0;bottom=0;right=0;align=left;spacingLeft=6;fontStyle=5;overflow=hidden;" parent="9" vertex="1">
                    <mxGeometry x="30" width="150" height="30" as="geometry"/>
                </mxCell>
                <mxCell id="12" value="" style="shape=partialRectangle;collapsible=0;dropTarget=0;pointerEvents=0;fillColor=none;top=0;left=0;bottom=0;right=0;points=[[0,0.5],[1,0.5]];portConstraint=eastwest;" parent="8" vertex="1">
                    <mxGeometry y="60" width="180" height="30" as="geometry"/>
                </mxCell>
                <mxCell id="13" value="" style="shape=partialRectangle;connectable=0;fillColor=none;top=0;left=0;bottom=0;right=0;editable=1;overflow=hidden;" parent="12" vertex="1">
                    <mxGeometry width="30" height="30" as="geometry"/>
                </mxCell>
                <mxCell id="14" value="name" style="shape=partialRectangle;connectable=0;fillColor=none;top=0;left=0;bottom=0;right=0;align=left;spacingLeft=6;overflow=hidden;" parent="12" vertex="1">
                    <mxGeometry x="30" width="150" height="30" as="geometry"/>
                </mxCell>
                <mxCell id="21" value="Table" style="shape=table;startSize=30;container=1;collapsible=1;childLayout=tableLayout;fixedRows=1;rowLines=0;fontStyle=1;align=center;resizeLast=1;" parent="1" vertex="1">
                    <mxGeometry x="-275.61" y="-3187" width="180" height="100" as="geometry"/>
                </mxCell>
                <mxCell id="22" value="" style="shape=partialRectangle;collapsible=0;dropTarget=0;pointerEvents=0;fillColor=none;top=0;left=0;bottom=0;right=0;points=[[0,0.5],[1,0.5]];portConstraint=eastwest;" parent="21" vertex="1">
                    <mxGeometry y="30" width="180" height="30" as="geometry"/>
                </mxCell>
                <mxCell id="23" value="PK,FK1" style="shape=partialRectangle;connectable=0;fillColor=none;top=0;left=0;bottom=0;right=0;fontStyle=1;overflow=hidden;" parent="22" vertex="1">
                    <mxGeometry width="60" height="30" as="geometry"/>
                </mxCell>
                <mxCell id="24" value="pack" style="shape=partialRectangle;connectable=0;fillColor=none;top=0;left=0;bottom=0;right=0;align=left;spacingLeft=6;fontStyle=5;overflow=hidden;" parent="22" vertex="1">
                    <mxGeometry x="60" width="120" height="30" as="geometry"/>
                </mxCell>
                <mxCell id="25" value="" style="shape=partialRectangle;collapsible=0;dropTarget=0;pointerEvents=0;fillColor=none;top=0;left=0;bottom=1;right=0;points=[[0,0.5],[1,0.5]];portConstraint=eastwest;" parent="21" vertex="1">
                    <mxGeometry y="60" width="180" height="30" as="geometry"/>
                </mxCell>
                <mxCell id="26" value="PK,FK2" style="shape=partialRectangle;connectable=0;fillColor=none;top=0;left=0;bottom=0;right=0;fontStyle=1;overflow=hidden;" parent="25" vertex="1">
                    <mxGeometry width="60" height="30" as="geometry"/>
                </mxCell>
                <mxCell id="27" value="product" style="shape=partialRectangle;connectable=0;fillColor=none;top=0;left=0;bottom=0;right=0;align=left;spacingLeft=6;fontStyle=5;overflow=hidden;" parent="25" vertex="1">
                    <mxGeometry x="60" width="120" height="30" as="geometry"/>
                </mxCell>
                <mxCell id="34" style="edgeStyle=orthogonalEdgeStyle;rounded=0;orthogonalLoop=1;jettySize=auto;html=1;exitX=0;exitY=0.5;exitDx=0;exitDy=0;entryX=1;entryY=0.5;entryDx=0;entryDy=0;startArrow=ERzeroToMany;startFill=1;endArrow=none;endFill=0;" parent="1" source="22" target="9" edge="1">
                    <mxGeometry relative="1" as="geometry"/>
                </mxCell>
                <mxCell id="35" style="edgeStyle=orthogonalEdgeStyle;rounded=0;orthogonalLoop=1;jettySize=auto;html=1;exitX=1;exitY=0.5;exitDx=0;exitDy=0;entryX=1.001;entryY=0.295;entryDx=0;entryDy=0;startArrow=ERzeroToMany;startFill=1;endArrow=none;endFill=0;entryPerimeter=0;" parent="1" source="25" target="tgF3T0BNK082DmQzEgRz-125" edge="1">
                    <mxGeometry relative="1" as="geometry"/>
                </mxCell>
            </root>
        </mxGraphModel>
    </diagram>
</mxfile>